<svg width="20" height="20" viewBox="0 0 20 20" fill="none" xmlns="http://www.w3.org/2000/svg">
<path d="M11.25 0.558319C11.25 0.558319 11.8667 2.76186 11.8667 4.54964C11.8667 6.26258 10.7417 7.65123 9.02501 7.65123C7.30001 7.65123 6.00001 6.26258 6.00001 4.54964L6.02501 4.25029C4.34168 6.24595 3.33334 8.832 3.33334 11.6426C3.33334 15.3179 6.31668 18.2948 10 18.2948C13.6833 18.2948 16.6667 15.3179 16.6667 11.6426C16.6667 7.16063 14.5083 3.16099 11.25 0.558319ZM9.75834 15.8002C8.27501 15.8002 7.07501 14.636 7.07501 13.1892C7.07501 11.8421 7.95001 10.8942 9.41668 10.5948C10.8917 10.2955 12.4167 9.58869 13.2667 8.4495C13.5917 9.52216 13.7583 10.653 13.7583 11.8089C13.7583 14.0124 11.9667 15.8002 9.75834 15.8002Z" fill="#000"/>
</svg>
