<?xml version="1.0" ?><!DOCTYPE svg  PUBLIC '-//W3C//DTD SVG 1.1//EN'  'http://www.w3.org/Graphics/SVG/1.1/DTD/svg11.dtd'><svg enable-background="new 0 0 500 500" height="500px" id="Layer_1" version="1.1" viewBox="0 0 500 500" width="500px" xml:space="preserve" xmlns="http://www.w3.org/2000/svg" xmlns:xlink="http://www.w3.org/1999/xlink"><g><path d="M384.22,218.408c-11.972,0.051-21.639-9.615-21.639-21.639c0-11.771,9.431-21.328,21.195-21.617   c-3.579-19.52-11.618-37.834-23.616-53.729c-8.396,5.535-19.822,4.614-27.183-2.748c-7.144-7.144-8.235-18.024-3.337-26.323   c-11.028-7.51-23.177-13.309-35.964-17.125c-5.952-1.732-12.031-3.026-18.188-3.885c-2.852,8.632-10.935,14.887-20.531,14.848   c-9.297,0.02-17.22-5.872-20.277-14.113c-18.683,3.316-36.285,10.719-51.753,21.763c3.948,8.086,2.583,18.114-4.135,24.832   c-6.766,6.766-16.973,8.097-25.115,3.967c-11.563,15.683-19.298,33.656-22.76,52.778c10.326,1.629,18.27,10.576,18.27,21.349   c-0.021,11.004-8.251,20.075-18.863,21.443c2.269,14.842,7.093,29.047,14.391,42.281c0.089,0.845,48.39,87.511,48.39,141.622   l1.64,16.055c2.618,10.689,8.073,16.101,16.212,16.101h92.809c8.162,0,13.596-5.412,16.212-16.101l1.662-16.055   c0-54.111,48.302-140.777,48.81-141.622c6.891-13.175,11.662-27.313,13.926-42.083L384.22,218.408z M352.664,208.156   c-1.197,12.685-4.923,25.059-11.021,36.768c-5.169,9.224-51.806,94.473-52.737,155.369l-0.132,1.242h-62.849l-0.089-1.242   c-0.711-45.64-26.724-105.694-49.21-149.293l-0.066-0.488l-3.195-5.811c-6.254-11.354-10.067-23.64-11.309-36.545l-0.488-10.203   c0.177-25.368,10.112-49.142,28.055-67.062c18.094-18.097,42.157-28.075,67.75-28.075c9.29,0,18.406,1.285,27.01,3.815   c15.301,4.567,29.406,12.951,40.737,24.26c17.897,17.92,27.877,41.693,28.055,67.018L352.664,208.156z" fill="#DD1E36"/><path d="M278.167,162.958c-9.486,0-17.686,7.775-17.686,17.271c0,8.843,5.825,14.679,14.679,14.679   c9.714,0,17.904-7.34,17.904-17.271C293.065,168.794,286.813,162.958,278.167,162.958z" fill="#DD1E36"/><path d="M282.5,268.049c-3.027,0-14.907,18.34-21.367,18.34c-1.731,0-2.592-1.504-2.592-3.007   c0-3.462,2.374-8.863,3.661-12.088l15.549-42.08c7.756-20.931-2.166-26.55-11.445-26.55c-12.513,0-23.74,6.272-32.366,14.463   c-2.819,2.809-12.305,11.869-12.305,15.748c0,1.306,1.296,2.809,2.809,2.809c3.878,0,14.245-18.774,22.228-18.774   c1.731,0,3.67,1.958,2.156,5.836l-15.096,37.964c-1.523,3.68-8.863,21.367-8.863,31.733c0,8.211,5.392,11.87,13.176,11.87   c21.782,0,47.036-26.767,47.036-33.019C285.082,269.335,283.569,268.049,282.5,268.049z" fill="#DD1E36"/></g></svg>