<?xml version="1.0" ?><svg data-name="Слой 1" id="Слой_1" viewBox="0 0 64 64" xmlns="http://www.w3.org/2000/svg"><defs><style>
      .cls-1 {
        fill: #ebeff7;
      }

      .cls-2 {
        fill: none;
      }

      .cls-2, .cls-8 {
        stroke: #232d61;
        stroke-linecap: round;
        stroke-linejoin: round;
      }

      .cls-3 {
        fill: #c5c5c7;
      }

      .cls-4, .cls-8 {
        fill: #87b9fa;
      }

      .cls-5 {
        fill: #a8d7ff;
      }

      .cls-6 {
        fill: #edb966;
      }

      .cls-7 {
        fill: #ffe1b0;
      }
    </style></defs><title/><path class="cls-1" d="M52.5,57.5h-31V8.5a2,2,0,0,1,2-2h29a2,2,0,0,1,2,2v47A2,2,0,0,1,52.5,57.5Z"/><path class="cls-2" d="M52.5,57.5h-31V8.5a2,2,0,0,1,2-2h29a2,2,0,0,1,2,2v47A2,2,0,0,1,52.5,57.5Z"/><line class="cls-2" x1="34.5" x2="50.5" y1="29.5" y2="29.5"/><line class="cls-2" x1="34.5" x2="50.5" y1="32.5" y2="32.5"/><line class="cls-2" x1="34.5" x2="50.5" y1="35.5" y2="35.5"/><line class="cls-2" x1="34.5" x2="50.5" y1="46.5" y2="46.5"/><line class="cls-2" x1="34.5" x2="50.5" y1="52.5" y2="52.5"/><line class="cls-2" x1="34.5" x2="50.5" y1="38.5" y2="38.5"/><line class="cls-2" x1="34.5" x2="50.5" y1="49.5" y2="49.5"/><path class="cls-3" d="M30.5,29.5v26a2,2,0,0,1-2,2H9.5a2,2,0,0,1-2-2v-26a2,2,0,0,1,2-2h19a2,2,0,0,1,2,2Z"/><path class="cls-2" d="M30.5,29.5v26a2,2,0,0,1-2,2H9.5a2,2,0,0,1-2-2v-26a2,2,0,0,1,2-2h19a2,2,0,0,1,2,2Z"/><path class="cls-4" d="M28,31.5v4a1.05,1.05,0,0,1-1.09,1H11.59a1.05,1.05,0,0,1-1.09-1v-4a1.05,1.05,0,0,1,1.09-1H26.91a1.15,1.15,0,0,1,.77.29A1,1,0,0,1,28,31.5Z"/><path class="cls-5" d="M23,30.5l-6,6H11.5a1,1,0,0,1-1-1v-4a1,1,0,0,1,1-1Z"/><path class="cls-5" d="M26.21,30.79,20.5,36.5H18l6-6H25.5A1,1,0,0,1,26.21,30.79Z"/><rect class="cls-2" height="6" rx="1" width="17" x="10.5" y="30.5"/><path class="cls-6" d="M14.5,41v2a.5.5,0,0,1-.5.5H12a.5.5,0,0,1-.48-.5V41a.5.5,0,0,1,.5-.5h2A.5.5,0,0,1,14.5,41Z"/><path class="cls-6" d="M20.5,41v2a.5.5,0,0,1-.5.5H18a.5.5,0,0,1-.48-.5V41a.5.5,0,0,1,.5-.5h2A.5.5,0,0,1,20.5,41Z"/><path class="cls-6" d="M26.5,41v2a.5.5,0,0,1-.5.5H24a.5.5,0,0,1-.48-.5V41a.5.5,0,0,1,.5-.5h2A.5.5,0,0,1,26.5,41Z"/><path class="cls-6" d="M14.5,46v2a.5.5,0,0,1-.5.5H12a.5.5,0,0,1-.48-.5V46a.5.5,0,0,1,.5-.5h2A.5.5,0,0,1,14.5,46Z"/><path class="cls-6" d="M26.5,46v2a.5.5,0,0,1-.5.5H24a.5.5,0,0,1-.48-.5V46a.5.5,0,0,1,.5-.5h2A.5.5,0,0,1,26.5,46Z"/><path class="cls-6" d="M14.5,51v2a.5.5,0,0,1-.5.5H12a.5.5,0,0,1-.48-.5V51a.5.5,0,0,1,.5-.5h2A.5.5,0,0,1,14.5,51Z"/><path class="cls-6" d="M20.5,51v2a.5.5,0,0,1-.5.5H18a.5.5,0,0,1-.48-.5V51a.5.5,0,0,1,.5-.5h2A.5.5,0,0,1,20.5,51Z"/><path class="cls-6" d="M20.5,46v2a.5.5,0,0,1-.5.5H18a.5.5,0,0,1-.48-.5V46a.5.5,0,0,1,.5-.5h2A.5.5,0,0,1,20.5,46Z"/><path class="cls-7" d="M14.5,41,12,43.5a.5.5,0,0,1-.48-.5V41a.5.5,0,0,1,.5-.5h2A.5.5,0,0,1,14.5,41Z"/><path class="cls-7" d="M14.5,46,12,48.5a.5.5,0,0,1-.48-.5V46a.5.5,0,0,1,.5-.5h2A.5.5,0,0,1,14.5,46Z"/><path class="cls-6" d="M26.5,51v2a.5.5,0,0,1-.5.5H24a.5.5,0,0,1-.48-.5V51a.5.5,0,0,1,.5-.5h2A.5.5,0,0,1,26.5,51Z"/><path class="cls-2" d="M14.5,41v2a.5.5,0,0,1-.5.5H12a.5.5,0,0,1-.48-.5V41a.5.5,0,0,1,.5-.5h2A.5.5,0,0,1,14.5,41Z"/><path class="cls-7" d="M14.5,51,12,53.5a.5.5,0,0,1-.48-.5V51a.5.5,0,0,1,.5-.5h2A.5.5,0,0,1,14.5,51Z"/><path class="cls-7" d="M20.5,51,18,53.5a.5.5,0,0,1-.48-.5V51a.5.5,0,0,1,.5-.5h2A.5.5,0,0,1,20.5,51Z"/><path class="cls-7" d="M20.5,46,18,48.5a.5.5,0,0,1-.48-.5V46a.5.5,0,0,1,.5-.5h2A.5.5,0,0,1,20.5,46Z"/><path class="cls-7" d="M20.5,41,18,43.5a.5.5,0,0,1-.48-.5V41a.5.5,0,0,1,.5-.5h2A.5.5,0,0,1,20.5,41Z"/><path class="cls-7" d="M26.5,41l-2,2-.5.5a.5.5,0,0,1-.48-.5V41a.5.5,0,0,1,.5-.5h2A.5.5,0,0,1,26.5,41Z"/><path class="cls-7" d="M26.5,46l-2,2-.5.5a.5.5,0,0,1-.48-.5V46a.5.5,0,0,1,.5-.5h2A.5.5,0,0,1,26.5,46Z"/><path class="cls-7" d="M26.5,51,24,53.5a.5.5,0,0,1-.48-.5V51a.5.5,0,0,1,.5-.5h2A.5.5,0,0,1,26.5,51Z"/><path class="cls-2" d="M20.5,41v2a.5.5,0,0,1-.5.5H18a.5.5,0,0,1-.48-.5V41a.5.5,0,0,1,.5-.5h2A.5.5,0,0,1,20.5,41Z"/><path class="cls-2" d="M26.5,41v2a.5.5,0,0,1-.5.5H24a.5.5,0,0,1-.48-.5V41a.5.5,0,0,1,.5-.5h2A.5.5,0,0,1,26.5,41Z"/><path class="cls-2" d="M14.5,46v2a.5.5,0,0,1-.5.5H12a.5.5,0,0,1-.48-.5V46a.5.5,0,0,1,.5-.5h2A.5.5,0,0,1,14.5,46Z"/><path class="cls-2" d="M26.5,46v2a.5.5,0,0,1-.5.5H24a.5.5,0,0,1-.48-.5V46a.5.5,0,0,1,.5-.5h2A.5.5,0,0,1,26.5,46Z"/><path class="cls-2" d="M14.5,51v2a.5.5,0,0,1-.5.5H12a.5.5,0,0,1-.48-.5V51a.5.5,0,0,1,.5-.5h2A.5.5,0,0,1,14.5,51Z"/><path class="cls-2" d="M20.5,51v2a.5.5,0,0,1-.5.5H18a.5.5,0,0,1-.48-.5V51a.5.5,0,0,1,.5-.5h2A.5.5,0,0,1,20.5,51Z"/><path class="cls-2" d="M20.5,46v2a.5.5,0,0,1-.5.5H18a.5.5,0,0,1-.48-.5V46a.5.5,0,0,1,.5-.5h2A.5.5,0,0,1,20.5,46Z"/><path class="cls-2" d="M26.5,51v2a.5.5,0,0,1-.5.5H24a.5.5,0,0,1-.48-.5V51a.5.5,0,0,1,.5-.5h2A.5.5,0,0,1,26.5,51Z"/><path class="cls-8" d="M49.5,18.21a2.46,2.46,0,0,0-1-.92,7,7,0,0,0-1.5-.48l-.07,0h-.07l-.07,0h-.06a11.11,11.11,0,0,1-1.19-.32A1.81,1.81,0,0,1,44.8,16a1.31,1.31,0,0,1-.29-.89h0A1.5,1.5,0,0,1,45,13.82a2.28,2.28,0,0,1,1.5-.41,3.22,3.22,0,0,1,1,.18,4,4,0,0,1,.53.23.78.78,0,0,0,1-.23l0,0a.79.79,0,0,0-.3-1.16l-.21-.09a5.55,5.55,0,0,0-1-.34,4.29,4.29,0,0,0-.5-.07v-.49a.78.78,0,0,0-1.55,0V12a4.26,4.26,0,0,0-1,.29,2.57,2.57,0,0,0-1.2,1.1,3.77,3.77,0,0,0-.4,1.84h0a3,3,0,0,0,.44,1.75,2.4,2.4,0,0,0,1.08.86,11.45,11.45,0,0,0,1.65.42l.08,0h.16a6,6,0,0,1,1,.28A1.51,1.51,0,0,1,48,19a1.31,1.31,0,0,1,.26.87h0a1.53,1.53,0,0,1-.53,1.27,2.56,2.56,0,0,1-1.61.42,3.17,3.17,0,0,1-1.44-.33,3.45,3.45,0,0,1-.64-.41.78.78,0,0,0-1.11.08l0,0a.78.78,0,0,0,.1,1.09,5.74,5.74,0,0,0,.5.36,4.82,4.82,0,0,0,1.23.53l.56.15a.64.64,0,0,0,.2,0h0v.45a.78.78,0,0,0,1.55,0v-.51a4.18,4.18,0,0,0,1.16-.3,2.53,2.53,0,0,0,1.25-1.06,3.42,3.42,0,0,0,.42-1.78h0A3.2,3.2,0,0,0,49.5,18.21Z"/><line class="cls-2" x1="25.5" x2="37.5" y1="11.5" y2="11.5"/><line class="cls-2" x1="25.5" x2="37.5" y1="14.5" y2="14.5"/><line class="cls-2" x1="25.5" x2="37.5" y1="23.5" y2="23.5"/><line class="cls-2" x1="25.5" x2="37.5" y1="20.5" y2="20.5"/><line class="cls-2" x1="25.5" x2="37.5" y1="17.5" y2="17.5"/></svg>