<?xml version="1.0" ?><!DOCTYPE svg  PUBLIC '-//W3C//DTD SVG 1.1//EN'  'http://www.w3.org/Graphics/SVG/1.1/DTD/svg11.dtd'><svg enable-background="new 0 0 100 100" height="100px" id="Layer_2" version="1.1" viewBox="0 0 100 100" width="100px" xml:space="preserve" xmlns="http://www.w3.org/2000/svg" xmlns:xlink="http://www.w3.org/1999/xlink"><g id="Chat"><path d="M27.739,61.49h39.349c3.006,0,5.465-2.461,5.465-5.467V32.798c0-3.006-2.459-5.465-5.465-5.465H23.367   c-3.006,0-5.465,2.459-5.465,5.465v23.228v18.377L27.739,61.49z" fill="#FFB600"/><g><path d="M50,2C23.533,2,2,23.533,2,50c0,26.467,21.533,48,48,48c9.202,0,18.144-2.612,25.858-7.555    c0.93-0.596,1.201-1.832,0.604-2.763c-0.596-0.93-1.833-1.204-2.763-0.604C66.632,91.606,58.436,94,50,94C25.738,94,6,74.262,6,50    S25.738,6,50,6s44,19.738,44,44c0,10.395-3.627,20.335-10.262,28.246l-8.361-10.934c-0.379-0.495-0.966-0.785-1.589-0.785H34.439    c-1.764,0-3.208-1.33-3.421-3.037h36.07c4.116,0,7.465-3.35,7.465-7.467V36.369h3.607c1.91,0,3.465,1.554,3.465,3.465v30.749    c0,1.104,0.896,2,2,2s2-0.896,2-2V39.834c0-4.116-3.349-7.465-7.465-7.465h-3.629c-0.225-3.917-3.472-7.036-7.443-7.036H23.367    c-4.116,0-7.465,3.349-7.465,7.465v41.604c0,0.858,0.547,1.62,1.36,1.895c0.21,0.071,0.426,0.105,0.639,0.105    c0.612,0,1.206-0.282,1.591-0.788l7.836-10.285c0.962,3.011,3.785,5.198,7.11,5.198H72.8l9.236,12.078    c0.357,0.468,0.902,0.754,1.49,0.783c0.597,0.017,1.159-0.203,1.561-0.633C93.414,73.84,98,62.207,98,50C98,23.533,76.467,2,50,2z     M27.739,59.49c-0.624,0-1.212,0.291-1.591,0.788l-6.246,8.198V32.798c0-1.911,1.555-3.465,3.465-3.465h43.721    c1.91,0,3.465,1.554,3.465,3.465v1.562c0,0.003-0.001,0.006-0.001,0.01s0.001,0.006,0.001,0.01v21.645    c0,1.911-1.555,3.467-3.465,3.467H27.739z" fill="#595959"/><path d="M63.25,37H28.519c-1.104,0-2,0.896-2,2s0.896,2,2,2H63.25c1.104,0,2-0.896,2-2S64.354,37,63.25,37z" fill="#595959"/><path d="M63.25,47.146H28.519c-1.104,0-2,0.896-2,2s0.896,2,2,2H63.25c1.104,0,2-0.896,2-2    S64.354,47.146,63.25,47.146z" fill="#595959"/></g></g></svg>