<?xml version="1.0" ?><!DOCTYPE svg  PUBLIC '-//W3C//DTD SVG 1.1//EN'  'http://www.w3.org/Graphics/SVG/1.1/DTD/svg11.dtd'><svg enable-background="new 0 0 100 100" height="100px" id="Layer_1" version="1.1" viewBox="0 0 100 100" width="100px" xml:space="preserve" xmlns="http://www.w3.org/2000/svg" xmlns:xlink="http://www.w3.org/1999/xlink"><g><g><path d="M89.901,67.801c0,4.841-4.033,8.801-8.96,8.801H19.619c-4.925,0-8.955-3.96-8.955-8.801V30.572    c0-4.838,4.03-8.797,8.955-8.797h61.322c4.927,0,8.96,3.959,8.96,8.797V67.801z" fill="#ABADA5"/><linearGradient gradientTransform="matrix(0.394 0 0 0.394 2138.6787 829.6563)" gradientUnits="userSpaceOnUse" id="SVGID_1_" x1="-5296.126" x2="-5309.8408" y1="-1906.1787" y2="-2064.1738"><stop offset="0" style="stop-color:#869D92"/><stop offset="0.1622" style="stop-color:#8BA196"/><stop offset="0.3504" style="stop-color:#99ACA3"/><stop offset="0.5516" style="stop-color:#B0BFB8"/><stop offset="0.7621" style="stop-color:#D1DAD5"/><stop offset="0.9775" style="stop-color:#FAFBFB"/><stop offset="1" style="stop-color:#FFFFFF"/></linearGradient><path d="M89.171,68.97c0,4.839-4.033,8.799-8.958,8.799H18.891c-4.928,0-8.958-3.96-8.958-8.799v-37.23    c0-4.837,4.03-8.798,8.958-8.798h61.322c4.925,0,8.958,3.961,8.958,8.798V68.97z" fill="url(#SVGID_1_)"/><polygon fill="#FFFFFF" points="86.025,73.733 49.33,39.203 12.199,74.167 49.33,51.932   "/><polygon fill="#80807B" points="86.025,73.733 49.33,39.203 12.199,74.167 49.33,48.483   "/><polygon fill="#80807B" points="12.199,26.526 48.891,61.06 86.025,26.096 48.891,51.778   "/><linearGradient gradientTransform="matrix(0.394 0 0 0.394 2138.6787 829.6563)" gradientUnits="userSpaceOnUse" id="SVGID_2_" x1="-5303.0596" x2="-5303.0596" y1="-2081.1201" y2="-1972.5754"><stop offset="0" style="stop-color:#AEB8B3"/><stop offset="0.2034" style="stop-color:#B3BCB8"/><stop offset="0.4395" style="stop-color:#C1C9C5"/><stop offset="0.6918" style="stop-color:#D8DDDB"/><stop offset="0.9539" style="stop-color:#F9F9F9"/><stop offset="1" style="stop-color:#FFFFFF"/></linearGradient><path d="M86.888,25.894c-1.642-1.81-4.029-2.953-6.675-2.953H18.891c-2.961,0-5.599,1.434-7.233,3.624    l37.222,25.62L86.888,25.894z" fill="url(#SVGID_2_)"/><linearGradient gradientTransform="matrix(0.394 0 0 0.394 2138.6519 829.6763)" gradientUnits="userSpaceOnUse" id="SVGID_3_" x1="-5274.5146" x2="-5288.207" y1="-1908.1553" y2="-2065.8901"><stop offset="0" style="stop-color:#008FAF"/><stop offset="0.1065" style="stop-color:#0591B1"/><stop offset="0.2302" style="stop-color:#1397B5"/><stop offset="0.3625" style="stop-color:#2AA2BC"/><stop offset="0.5009" style="stop-color:#4BB0C7"/><stop offset="0.644" style="stop-color:#75C2D4"/><stop offset="0.7912" style="stop-color:#A8D9E4"/><stop offset="0.9388" style="stop-color:#E4F3F7"/><stop offset="1" style="stop-color:#FFFFFF"/></linearGradient><polygon fill="url(#SVGID_3_)" points="55.667,22.95 53.142,25.43 56.002,25.43 58.526,22.95   "/><linearGradient gradientTransform="matrix(0.394 0 0 0.394 2138.6519 829.6763)" gradientUnits="userSpaceOnUse" id="SVGID_4_" x1="-5396.501" x2="-5410.1802" y1="-1897.7725" y2="-2055.3538"><stop offset="0" style="stop-color:#008FAF"/><stop offset="0.1065" style="stop-color:#0591B1"/><stop offset="0.2302" style="stop-color:#1397B5"/><stop offset="0.3625" style="stop-color:#2AA2BC"/><stop offset="0.5009" style="stop-color:#4BB0C7"/><stop offset="0.644" style="stop-color:#75C2D4"/><stop offset="0.7912" style="stop-color:#A8D9E4"/><stop offset="0.9388" style="stop-color:#E4F3F7"/><stop offset="1" style="stop-color:#FFFFFF"/></linearGradient><path d="M12.428,65.424l-2.527,2.483v1.069c0,0.541,0.059,1.07,0.155,1.585l2.372-2.329V65.424z" fill="url(#SVGID_4_)"/><linearGradient gradientTransform="matrix(0.394 0 0 0.394 2138.6519 829.6763)" gradientUnits="userSpaceOnUse" id="SVGID_5_" x1="-5383.082" x2="-5396.7773" y1="-1898.875" y2="-2056.6426"><stop offset="0" style="stop-color:#008FAF"/><stop offset="0.1065" style="stop-color:#0591B1"/><stop offset="0.2302" style="stop-color:#1397B5"/><stop offset="0.3625" style="stop-color:#2AA2BC"/><stop offset="0.5009" style="stop-color:#4BB0C7"/><stop offset="0.644" style="stop-color:#75C2D4"/><stop offset="0.7912" style="stop-color:#A8D9E4"/><stop offset="0.9388" style="stop-color:#E4F3F7"/><stop offset="1" style="stop-color:#FFFFFF"/></linearGradient><path d="M16.932,75.004L15,76.9c0.673,0.32,1.388,0.564,2.14,0.708l2.354-2.313h-0.637    C18.187,75.295,17.541,75.193,16.932,75.004z" fill="url(#SVGID_5_)"/><linearGradient gradientTransform="matrix(0.394 0 0 0.394 2138.6519 829.6763)" gradientUnits="userSpaceOnUse" id="SVGID_6_" x1="-5238.5933" x2="-5252.2856" y1="-1911.2178" y2="-2068.9526"><stop offset="0" style="stop-color:#008FAF"/><stop offset="0.1065" style="stop-color:#0591B1"/><stop offset="0.2302" style="stop-color:#1397B5"/><stop offset="0.3625" style="stop-color:#2AA2BC"/><stop offset="0.5009" style="stop-color:#4BB0C7"/><stop offset="0.644" style="stop-color:#75C2D4"/><stop offset="0.7912" style="stop-color:#A8D9E4"/><stop offset="0.9388" style="stop-color:#E4F3F7"/><stop offset="1" style="stop-color:#FFFFFF"/></linearGradient><polygon fill="url(#SVGID_6_)" points="69.924,22.95 67.398,25.43 70.261,25.43 72.785,22.95   "/><linearGradient gradientTransform="matrix(0.394 0 0 0.394 2138.6519 829.6763)" gradientUnits="userSpaceOnUse" id="SVGID_7_" x1="-5393.8032" x2="-5407.4995" y1="-1897.9561" y2="-2055.738"><stop offset="0" style="stop-color:#9E4F40"/><stop offset="0.5508" style="stop-color:#B67667"/><stop offset="1" style="stop-color:#C79182"/></linearGradient><path d="M11.249,73.585c0.358,0.57,0.777,1.101,1.255,1.576l1.779-1.749    c-0.479-0.479-0.879-1.034-1.186-1.644L11.249,73.585z" fill="url(#SVGID_7_)"/><linearGradient gradientTransform="matrix(0.394 0 0 0.394 2138.6519 829.6763)" gradientUnits="userSpaceOnUse" id="SVGID_8_" x1="-5256.561" x2="-5270.249" y1="-1909.729" y2="-2067.4153"><stop offset="0" style="stop-color:#9E4F40"/><stop offset="0.5508" style="stop-color:#B67667"/><stop offset="1" style="stop-color:#C79182"/></linearGradient><polygon fill="url(#SVGID_8_)" points="62.796,22.95 60.269,25.43 63.127,25.43 65.655,22.95   "/><linearGradient gradientTransform="matrix(0.394 0 0 0.394 2138.6519 829.6763)" gradientUnits="userSpaceOnUse" id="SVGID_9_" x1="-5292.4761" x2="-5306.1685" y1="-1906.624" y2="-2064.3589"><stop offset="0" style="stop-color:#9E4F40"/><stop offset="0.5508" style="stop-color:#B67667"/><stop offset="1" style="stop-color:#C79182"/></linearGradient><polygon fill="url(#SVGID_9_)" points="48.537,22.95 46.012,25.43 48.874,25.43 51.398,22.95   "/><linearGradient gradientTransform="matrix(0.394 0 0 0.394 2138.6519 829.6763)" gradientUnits="userSpaceOnUse" id="SVGID_10_" x1="-5395.126" x2="-5408.8027" y1="-1897.9155" y2="-2055.4697"><stop offset="0" style="stop-color:#9E4F40"/><stop offset="0.5508" style="stop-color:#B67667"/><stop offset="1" style="stop-color:#C79182"/></linearGradient><polygon fill="url(#SVGID_10_)" points="12.428,58.423 9.901,60.902 9.901,63.713 12.428,61.231   "/><linearGradient gradientTransform="matrix(0.394 0 0 0.394 2138.6519 829.6763)" gradientUnits="userSpaceOnUse" id="SVGID_11_" x1="-5220.6372" x2="-5234.3296" y1="-1912.749" y2="-2070.4839"><stop offset="0" style="stop-color:#9E4F40"/><stop offset="0.5508" style="stop-color:#B67667"/><stop offset="1" style="stop-color:#C79182"/></linearGradient><polygon fill="url(#SVGID_11_)" points="77.053,22.95 74.526,25.43 77.387,25.43 79.912,22.95   "/><linearGradient gradientTransform="matrix(0.394 0 0 0.394 2138.6519 829.6763)" gradientUnits="userSpaceOnUse" id="SVGID_12_" x1="-5366.3398" x2="-5380.0317" y1="-1900.3047" y2="-2058.0334"><stop offset="0" style="stop-color:#9E4F40"/><stop offset="0.5508" style="stop-color:#B67667"/><stop offset="1" style="stop-color:#C79182"/></linearGradient><polygon fill="url(#SVGID_12_)" points="21.239,77.775 24.098,77.775 26.622,75.295 23.762,75.295   "/><linearGradient gradientTransform="matrix(0.394 0 0 0.394 2138.6519 829.6763)" gradientUnits="userSpaceOnUse" id="SVGID_13_" x1="-5362.1045" x2="-5375.7925" y1="-1900.7324" y2="-2058.4187"><stop offset="0" style="stop-color:#9E4F40"/><stop offset="0.5508" style="stop-color:#B67667"/><stop offset="1" style="stop-color:#C79182"/></linearGradient><path d="M21.249,25.43l2.528-2.48h-2.862l-2.55,2.506c0.163-0.014,0.328-0.026,0.492-0.026H21.249z" fill="url(#SVGID_13_)"/><linearGradient gradientTransform="matrix(0.394 0 0 0.394 2138.6519 829.6763)" gradientUnits="userSpaceOnUse" id="SVGID_14_" x1="-5389.1597" x2="-5402.8467" y1="-1898.4277" y2="-2056.0991"><stop offset="0" style="stop-color:#9E4F40"/><stop offset="0.5508" style="stop-color:#B67667"/><stop offset="1" style="stop-color:#C79182"/></linearGradient><path d="M12.428,31.748c0-0.164,0.012-0.324,0.023-0.485l-2.551,2.506v2.81l2.527-2.482V31.748z" fill="url(#SVGID_14_)"/><linearGradient gradientTransform="matrix(0.394 0 0 0.394 2138.6519 829.6763)" gradientUnits="userSpaceOnUse" id="SVGID_15_" x1="-5390.7275" x2="-5404.4063" y1="-1898.3457" y2="-2055.9209"><stop offset="0" style="stop-color:#008FAF"/><stop offset="0.1065" style="stop-color:#0591B1"/><stop offset="0.2302" style="stop-color:#1397B5"/><stop offset="0.3625" style="stop-color:#2AA2BC"/><stop offset="0.5009" style="stop-color:#4BB0C7"/><stop offset="0.644" style="stop-color:#75C2D4"/><stop offset="0.7912" style="stop-color:#A8D9E4"/><stop offset="0.9388" style="stop-color:#E4F3F7"/><stop offset="1" style="stop-color:#FFFFFF"/></linearGradient><polygon fill="url(#SVGID_15_)" points="12.428,38.291 9.901,40.771 9.901,43.58 12.428,41.101   "/><linearGradient gradientTransform="matrix(0.394 0 0 0.394 2138.6519 829.6763)" gradientUnits="userSpaceOnUse" id="SVGID_16_" x1="-5344.1152" x2="-5357.8032" y1="-1902.2656" y2="-2059.9519"><stop offset="0" style="stop-color:#008FAF"/><stop offset="0.1065" style="stop-color:#0591B1"/><stop offset="0.2302" style="stop-color:#1397B5"/><stop offset="0.3625" style="stop-color:#2AA2BC"/><stop offset="0.5009" style="stop-color:#4BB0C7"/><stop offset="0.644" style="stop-color:#75C2D4"/><stop offset="0.7912" style="stop-color:#A8D9E4"/><stop offset="0.9388" style="stop-color:#E4F3F7"/><stop offset="1" style="stop-color:#FFFFFF"/></linearGradient><polygon fill="url(#SVGID_16_)" points="30.903,22.95 28.045,22.95 25.518,25.43 28.379,25.43   "/><linearGradient gradientTransform="matrix(0.394 0 0 0.394 2138.6519 829.6763)" gradientUnits="userSpaceOnUse" id="SVGID_17_" x1="-5392.2549" x2="-5405.937" y1="-1898.1753" y2="-2055.7925"><stop offset="0" style="stop-color:#9E4F40"/><stop offset="0.5508" style="stop-color:#B67667"/><stop offset="1" style="stop-color:#C79182"/></linearGradient><polygon fill="url(#SVGID_17_)" points="12.428,45.29 9.901,47.774 9.901,50.58 12.428,48.102   "/><linearGradient gradientTransform="matrix(0.394 0 0 0.394 2138.6519 829.6763)" gradientUnits="userSpaceOnUse" id="SVGID_18_" x1="-5326.1509" x2="-5339.8389" y1="-1903.7974" y2="-2061.4836"><stop offset="0" style="stop-color:#9E4F40"/><stop offset="0.5508" style="stop-color:#B67667"/><stop offset="1" style="stop-color:#C79182"/></linearGradient><polygon fill="url(#SVGID_18_)" points="38.034,22.95 35.173,22.95 32.647,25.43 35.507,25.43   "/><linearGradient gradientTransform="matrix(0.394 0 0 0.394 2138.6519 829.6763)" gradientUnits="userSpaceOnUse" id="SVGID_19_" x1="-5393.6919" x2="-5407.3687" y1="-1898.0635" y2="-2055.6155"><stop offset="0" style="stop-color:#008FAF"/><stop offset="0.1065" style="stop-color:#0591B1"/><stop offset="0.2302" style="stop-color:#1397B5"/><stop offset="0.3625" style="stop-color:#2AA2BC"/><stop offset="0.5009" style="stop-color:#4BB0C7"/><stop offset="0.644" style="stop-color:#75C2D4"/><stop offset="0.7912" style="stop-color:#A8D9E4"/><stop offset="0.9388" style="stop-color:#E4F3F7"/><stop offset="1" style="stop-color:#FFFFFF"/></linearGradient><polygon fill="url(#SVGID_19_)" points="12.428,52.295 9.901,54.775 9.901,56.708 12.428,54.228   "/><linearGradient gradientTransform="matrix(0.394 0 0 0.394 2138.6519 829.6763)" gradientUnits="userSpaceOnUse" id="SVGID_20_" x1="-5309.3247" x2="-5323.0044" y1="-1905.3198" y2="-2062.906"><stop offset="0" style="stop-color:#008FAF"/><stop offset="0.1065" style="stop-color:#0591B1"/><stop offset="0.2302" style="stop-color:#1397B5"/><stop offset="0.3625" style="stop-color:#2AA2BC"/><stop offset="0.5009" style="stop-color:#4BB0C7"/><stop offset="0.644" style="stop-color:#75C2D4"/><stop offset="0.7912" style="stop-color:#A8D9E4"/><stop offset="0.9388" style="stop-color:#E4F3F7"/><stop offset="1" style="stop-color:#FFFFFF"/></linearGradient><polygon fill="url(#SVGID_20_)" points="42.3,22.95 39.774,25.43 41.743,25.43 44.27,22.95   "/><linearGradient gradientTransform="matrix(0.394 0 0 0.394 2138.6519 829.6763)" gradientUnits="userSpaceOnUse" id="SVGID_21_" x1="-5200.6914" x2="-5214.3696" y1="-1914.4863" y2="-2072.0586"><stop offset="0" style="stop-color:#9E4F40"/><stop offset="0.5508" style="stop-color:#B67667"/><stop offset="1" style="stop-color:#C79182"/></linearGradient><polygon fill="url(#SVGID_21_)" points="86.613,58.381 89.139,55.899 89.139,53.092 86.613,55.572   "/><linearGradient gradientTransform="matrix(0.394 0 0 0.394 2138.6519 829.6763)" gradientUnits="userSpaceOnUse" id="SVGID_22_" x1="-5258.5845" x2="-5272.2808" y1="-1909.4917" y2="-2067.269"><stop offset="0" style="stop-color:#9E4F40"/><stop offset="0.5508" style="stop-color:#B67667"/><stop offset="1" style="stop-color:#C79182"/></linearGradient><polygon fill="url(#SVGID_22_)" points="64.008,77.775 66.87,77.775 69.394,75.295 66.535,75.295   "/><linearGradient gradientTransform="matrix(0.394 0 0 0.394 2138.6519 829.6763)" gradientUnits="userSpaceOnUse" id="SVGID_23_" x1="-5199.1592" x2="-5212.8398" y1="-1914.6274" y2="-2072.2297"><stop offset="0" style="stop-color:#008FAF"/><stop offset="0.1065" style="stop-color:#0591B1"/><stop offset="0.2302" style="stop-color:#1397B5"/><stop offset="0.3625" style="stop-color:#2AA2BC"/><stop offset="0.5009" style="stop-color:#4BB0C7"/><stop offset="0.644" style="stop-color:#75C2D4"/><stop offset="0.7912" style="stop-color:#A8D9E4"/><stop offset="0.9388" style="stop-color:#E4F3F7"/><stop offset="1" style="stop-color:#FFFFFF"/></linearGradient><polygon fill="url(#SVGID_23_)" points="86.613,51.378 89.139,48.897 89.139,46.087 86.613,48.567   "/><linearGradient gradientTransform="matrix(0.394 0 0 0.394 2138.6519 829.6763)" gradientUnits="userSpaceOnUse" id="SVGID_24_" x1="-5276.5425" x2="-5290.2349" y1="-1907.9604" y2="-2065.6953"><stop offset="0" style="stop-color:#008FAF"/><stop offset="0.1065" style="stop-color:#0591B1"/><stop offset="0.2302" style="stop-color:#1397B5"/><stop offset="0.3625" style="stop-color:#2AA2BC"/><stop offset="0.5009" style="stop-color:#4BB0C7"/><stop offset="0.644" style="stop-color:#75C2D4"/><stop offset="0.7912" style="stop-color:#A8D9E4"/><stop offset="0.9388" style="stop-color:#E4F3F7"/><stop offset="1" style="stop-color:#FFFFFF"/></linearGradient><polygon fill="url(#SVGID_24_)" points="56.878,77.775 59.738,77.775 62.268,75.295 59.405,75.295   "/><linearGradient gradientTransform="matrix(0.394 0 0 0.394 2138.6519 829.6763)" gradientUnits="userSpaceOnUse" id="SVGID_25_" x1="-5203.8042" x2="-5217.4844" y1="-1914.1797" y2="-2071.7734"><stop offset="0" style="stop-color:#9E4F40"/><stop offset="0.5508" style="stop-color:#B67667"/><stop offset="1" style="stop-color:#C79182"/></linearGradient><path d="M89.078,69.964c0.038-0.324,0.061-0.652,0.061-0.987v-1.883l-2.561,2.513    c0,0.012-0.003,0.022-0.005,0.033v2.779" fill="url(#SVGID_25_)"/><linearGradient gradientTransform="matrix(0.394 0 0 0.394 2138.6519 829.6763)" gradientUnits="userSpaceOnUse" id="SVGID_26_" x1="-5222.6709" x2="-5236.3687" y1="-1912.5532" y2="-2070.3496"><stop offset="0" style="stop-color:#9E4F40"/><stop offset="0.5508" style="stop-color:#B67667"/><stop offset="1" style="stop-color:#C79182"/></linearGradient><path d="M80.83,75.263c-0.003,0-0.005,0-0.008,0l-2.558,2.513h1.914c0.344,0,0.678-0.021,1.007-0.059    l2.461-2.418l-2.824-0.031L80.83,75.263z" fill="url(#SVGID_26_)"/><linearGradient gradientTransform="matrix(0.394 0 0 0.394 2147.4595 826.5898)" gradientUnits="userSpaceOnUse" id="SVGID_27_" x1="-5231.73" x2="-5245.3945" y1="-1911.0054" y2="-2068.4182"><stop offset="0" style="stop-color:#008FAF"/><stop offset="0.1065" style="stop-color:#0591B1"/><stop offset="0.2302" style="stop-color:#1397B5"/><stop offset="0.3625" style="stop-color:#2AA2BC"/><stop offset="0.5009" style="stop-color:#4BB0C7"/><stop offset="0.644" style="stop-color:#75C2D4"/><stop offset="0.7912" style="stop-color:#A8D9E4"/><stop offset="0.9388" style="stop-color:#E4F3F7"/><stop offset="1" style="stop-color:#FFFFFF"/></linearGradient><path d="M86.113,75.073l-1.678,1.648c0.817-0.433,1.554-0.986,2.194-1.638    c0.004-0.002,0.007-0.006,0.011-0.011c0.569-0.579,1.066-1.233,1.459-1.949L86.113,75.073z" fill="url(#SVGID_27_)"/><linearGradient gradientTransform="matrix(0.394 0 0 0.394 2138.6519 829.6763)" gradientUnits="userSpaceOnUse" id="SVGID_28_" x1="-5202.2188" x2="-5215.9019" y1="-1914.3267" y2="-2071.9529"><stop offset="0" style="stop-color:#008FAF"/><stop offset="0.1065" style="stop-color:#0591B1"/><stop offset="0.2302" style="stop-color:#1397B5"/><stop offset="0.3625" style="stop-color:#2AA2BC"/><stop offset="0.5009" style="stop-color:#4BB0C7"/><stop offset="0.644" style="stop-color:#75C2D4"/><stop offset="0.7912" style="stop-color:#A8D9E4"/><stop offset="0.9388" style="stop-color:#E4F3F7"/><stop offset="1" style="stop-color:#FFFFFF"/></linearGradient><polygon fill="url(#SVGID_28_)" points="86.613,65.383 89.139,62.9 89.139,60.091 86.613,62.571   "/><linearGradient gradientTransform="matrix(0.394 0 0 0.394 2138.6519 829.6763)" gradientUnits="userSpaceOnUse" id="SVGID_29_" x1="-5240.625" x2="-5254.3213" y1="-1911.0234" y2="-2068.8008"><stop offset="0" style="stop-color:#008FAF"/><stop offset="0.1065" style="stop-color:#0591B1"/><stop offset="0.2302" style="stop-color:#1397B5"/><stop offset="0.3625" style="stop-color:#2AA2BC"/><stop offset="0.5009" style="stop-color:#4BB0C7"/><stop offset="0.644" style="stop-color:#75C2D4"/><stop offset="0.7912" style="stop-color:#A8D9E4"/><stop offset="0.9388" style="stop-color:#E4F3F7"/><stop offset="1" style="stop-color:#FFFFFF"/></linearGradient><polygon fill="url(#SVGID_29_)" points="71.135,77.775 73.997,77.775 76.523,75.295 73.663,75.295   "/><linearGradient gradientTransform="matrix(0.394 0 0 0.394 2138.6519 829.6763)" gradientUnits="userSpaceOnUse" id="SVGID_30_" x1="-5382.2212" x2="-5395.8882" y1="-1899.2363" y2="-2056.6777"><stop offset="0" style="stop-color:#008FAF"/><stop offset="0.1065" style="stop-color:#0591B1"/><stop offset="0.2302" style="stop-color:#1397B5"/><stop offset="0.3625" style="stop-color:#2AA2BC"/><stop offset="0.5009" style="stop-color:#4BB0C7"/><stop offset="0.644" style="stop-color:#75C2D4"/><stop offset="0.7912" style="stop-color:#A8D9E4"/><stop offset="0.9388" style="stop-color:#E4F3F7"/><stop offset="1" style="stop-color:#FFFFFF"/></linearGradient><path d="M10.291,29.191l5.963-5.858C13.414,24.187,11.162,26.399,10.291,29.191z" fill="url(#SVGID_30_)"/><linearGradient gradientTransform="matrix(0.394 0 0 0.394 2138.6519 829.6763)" gradientUnits="userSpaceOnUse" id="SVGID_31_" x1="-5348.3789" x2="-5362.0708" y1="-1901.8354" y2="-2059.5642"><stop offset="0" style="stop-color:#008FAF"/><stop offset="0.1065" style="stop-color:#0591B1"/><stop offset="0.2302" style="stop-color:#1397B5"/><stop offset="0.3625" style="stop-color:#2AA2BC"/><stop offset="0.5009" style="stop-color:#4BB0C7"/><stop offset="0.644" style="stop-color:#75C2D4"/><stop offset="0.7912" style="stop-color:#A8D9E4"/><stop offset="0.9388" style="stop-color:#E4F3F7"/><stop offset="1" style="stop-color:#FFFFFF"/></linearGradient><polygon fill="url(#SVGID_31_)" points="28.368,77.775 31.227,77.775 33.751,75.295 30.893,75.295   "/><linearGradient gradientTransform="matrix(0.394 0 0 0.394 2138.6519 829.6763)" gradientUnits="userSpaceOnUse" id="SVGID_32_" x1="-5205.1553" x2="-5218.8477" y1="-1914.0693" y2="-2071.8047"><stop offset="0" style="stop-color:#008FAF"/><stop offset="0.1065" style="stop-color:#0591B1"/><stop offset="0.2302" style="stop-color:#1397B5"/><stop offset="0.3625" style="stop-color:#2AA2BC"/><stop offset="0.5009" style="stop-color:#4BB0C7"/><stop offset="0.644" style="stop-color:#75C2D4"/><stop offset="0.7912" style="stop-color:#A8D9E4"/><stop offset="0.9388" style="stop-color:#E4F3F7"/><stop offset="1" style="stop-color:#FFFFFF"/></linearGradient><path d="M85.368,24.593c-0.571-0.399-1.188-0.737-1.846-1l-2.008,1.975    c0.733,0.152,1.417,0.433,2.038,0.808L85.368,24.593z" fill="url(#SVGID_32_)"/><linearGradient gradientTransform="matrix(0.394 0 0 0.394 2138.6519 829.6763)" gradientUnits="userSpaceOnUse" id="SVGID_33_" x1="-5294.4971" x2="-5308.1895" y1="-1906.4297" y2="-2064.1646"><stop offset="0" style="stop-color:#9E4F40"/><stop offset="0.5508" style="stop-color:#B67667"/><stop offset="1" style="stop-color:#C79182"/></linearGradient><polygon fill="url(#SVGID_33_)" points="49.753,77.775 52.612,77.775 55.14,75.295 52.278,75.295   "/><linearGradient gradientTransform="matrix(0.394 0 0 0.394 2138.6519 829.6763)" gradientUnits="userSpaceOnUse" id="SVGID_34_" x1="-5197.6294" x2="-5211.3101" y1="-1914.7744" y2="-2072.3767"><stop offset="0" style="stop-color:#9E4F40"/><stop offset="0.5508" style="stop-color:#B67667"/><stop offset="1" style="stop-color:#C79182"/></linearGradient><polygon fill="url(#SVGID_34_)" points="86.613,44.376 89.139,41.895 89.139,39.084 86.613,41.567   "/><linearGradient gradientTransform="matrix(0.394 0 0 0.394 2138.6519 829.6763)" gradientUnits="userSpaceOnUse" id="SVGID_35_" x1="-5196.7197" x2="-5210.4048" y1="-1914.8525" y2="-2072.502"><stop offset="0" style="stop-color:#9E4F40"/><stop offset="0.5508" style="stop-color:#B67667"/><stop offset="1" style="stop-color:#C79182"/></linearGradient><path d="M88.5,28.518c-0.262-0.651-0.601-1.259-1.005-1.823l-1.817,1.787    c0.378,0.611,0.656,1.29,0.809,2.015L88.5,28.518z" fill="url(#SVGID_35_)"/><linearGradient gradientTransform="matrix(0.394 0 0 0.394 2138.6519 829.6763)" gradientUnits="userSpaceOnUse" id="SVGID_36_" x1="-5330.4209" x2="-5344.1128" y1="-1903.3667" y2="-2061.0955"><stop offset="0" style="stop-color:#9E4F40"/><stop offset="0.5508" style="stop-color:#B67667"/><stop offset="1" style="stop-color:#C79182"/></linearGradient><polygon fill="url(#SVGID_36_)" points="35.494,77.775 38.355,77.775 40.881,75.295 38.021,75.295   "/><linearGradient gradientTransform="matrix(0.394 0 0 0.394 2138.6519 829.6763)" gradientUnits="userSpaceOnUse" id="SVGID_37_" x1="-5196.0981" x2="-5209.7813" y1="-1914.9102" y2="-2072.5364"><stop offset="0" style="stop-color:#008FAF"/><stop offset="0.1065" style="stop-color:#0591B1"/><stop offset="0.2302" style="stop-color:#1397B5"/><stop offset="0.3625" style="stop-color:#2AA2BC"/><stop offset="0.5009" style="stop-color:#4BB0C7"/><stop offset="0.644" style="stop-color:#75C2D4"/><stop offset="0.7912" style="stop-color:#A8D9E4"/><stop offset="0.9388" style="stop-color:#E4F3F7"/><stop offset="1" style="stop-color:#FFFFFF"/></linearGradient><polygon fill="url(#SVGID_37_)" points="86.613,34.563 86.613,37.373 89.139,34.893 89.139,32.081   "/><linearGradient gradientTransform="matrix(0.394 0 0 0.394 2138.6519 829.6763)" gradientUnits="userSpaceOnUse" id="SVGID_38_" x1="-5312.4609" x2="-5326.1533" y1="-1904.8975" y2="-2062.6323"><stop offset="0" style="stop-color:#008FAF"/><stop offset="0.1065" style="stop-color:#0591B1"/><stop offset="0.2302" style="stop-color:#1397B5"/><stop offset="0.3625" style="stop-color:#2AA2BC"/><stop offset="0.5009" style="stop-color:#4BB0C7"/><stop offset="0.644" style="stop-color:#75C2D4"/><stop offset="0.7912" style="stop-color:#A8D9E4"/><stop offset="0.9388" style="stop-color:#E4F3F7"/><stop offset="1" style="stop-color:#FFFFFF"/></linearGradient><polygon fill="url(#SVGID_38_)" points="42.624,77.775 45.483,77.775 48.008,75.295 45.148,75.295   "/></g></g></svg>