<?xml version="1.0" ?><!DOCTYPE svg  PUBLIC '-//W3C//DTD SVG 1.1//EN'  'http://www.w3.org/Graphics/SVG/1.1/DTD/svg11.dtd'><svg enable-background="new 0 0 100 100" height="100px" id="Layer_1" version="1.1" viewBox="0 0 100 100" width="100px" xml:space="preserve" xmlns="http://www.w3.org/2000/svg" xmlns:xlink="http://www.w3.org/1999/xlink"><path d="M50.4,42.845c-0.23-0.197-0.571-0.197-0.803,0l-6.912,5.946c-0.136,0.117-0.214,0.287-0.214,0.467v8.447  c0,0.34,0.276,0.615,0.616,0.615h4.209c0.341,0,0.617-0.275,0.617-0.615v-4.881h4.173v4.881c0,0.34,0.275,0.615,0.615,0.615h4.209  c0.341,0,0.616-0.275,0.616-0.615v-8.447c0-0.18-0.077-0.35-0.213-0.467L50.4,42.845z M55.508,43.402V40.02  c0-0.567-0.459-1.026-1.027-1.026c-0.567,0-1.027,0.459-1.027,1.026v1.617l-2.784-2.395c-0.385-0.332-0.955-0.332-1.339,0  l-9.439,8.12c-0.429,0.369-0.479,1.017-0.108,1.446c0.37,0.431,1.017,0.479,1.447,0.109l8.77-7.544l8.771,7.544  c0.192,0.166,0.432,0.248,0.669,0.248c0.288,0,0.575-0.121,0.777-0.357c0.37-0.43,0.321-1.077-0.109-1.447L55.508,43.402z   M69.878,28.421c-0.132-0.609-0.627-1.072-1.243-1.165c-0.612-0.09-1.225,0.205-1.529,0.748c-0.03,0.052-2.992,5.216-7.936,5.216  c-4.902,0-7.855-5.16-7.883-5.208c-0.264-0.477-0.766-0.773-1.312-0.773c-0.816,0-1.206,0.542-1.618,1.115  c-0.958,1.331-3.501,4.866-7.576,4.866c-4.901,0-7.854-5.16-7.881-5.208c-0.303-0.547-0.915-0.846-1.53-0.757  c-0.618,0.091-1.115,0.555-1.248,1.166c-4.998,23.01,6.645,37.91,19.208,44.18c0.211,0.105,0.44,0.158,0.67,0.158  s0.459-0.053,0.67-0.158C63.232,66.331,74.876,51.432,69.878,28.421z M50,69.574c-10.693-5.643-20.404-18.173-17.547-37.246  c1.762,1.842,4.568,3.893,8.329,3.893c4.529,0,7.56-2.998,9.133-4.949c1.611,2.003,4.748,4.949,9.256,4.949  c3.773,0,6.601-2.065,8.375-3.912C70.41,51.394,60.696,63.93,50,69.574z"/></svg>