<?xml version="1.0" ?><!DOCTYPE svg  PUBLIC '-//W3C//DTD SVG 1.1//EN'  'http://www.w3.org/Graphics/SVG/1.1/DTD/svg11.dtd'><svg enable-background="new 0 0 595.3 595.3" id="Layer_1" version="1.1" viewBox="0 0 595.3 595.3" xml:space="preserve" xmlns="http://www.w3.org/2000/svg" xmlns:xlink="http://www.w3.org/1999/xlink"><g><g><g><g><path d="M85.6,477.6v-61.4c0-4.5,3.7-8.2,8.2-8.2h407.8c4.5,0,8.2,3.7,8.2,8.2v61.4c0,4.5-3.7,8.2-8.2,8.2H93.8      C89.2,485.7,85.6,482.1,85.6,477.6z" fill="#FED23E"/><path d="M501.5,490.7H93.8c-7.3,0-13.2-5.9-13.2-13.2v-61.4c0-7.3,5.9-13.2,13.2-13.2h407.8      c7.3,0,13.2,5.9,13.2,13.2v61.4C514.7,484.8,508.8,490.7,501.5,490.7z M93.8,412.9c-1.8,0-3.2,1.4-3.2,3.2v61.4      c0,1.8,1.4,3.2,3.2,3.2h407.8c1.8,0,3.2-1.4,3.2-3.2v-61.4c0-1.8-1.4-3.2-3.2-3.2H93.8z" fill="#4A4F59"/></g><g><g><rect fill="#4A4F59" height="77.8" width="10" x="448.4" y="407.9"/></g><g><rect fill="#4A4F59" height="77.8" width="10" x="136.9" y="407.9"/></g></g></g><g><g><path d="M141,322v-61.4c0-4.5,3.7-8.2,8.2-8.2h297c4.5,0,8.2,3.7,8.2,8.2V322c0,4.5-3.7,8.2-8.2,8.2h-297      C144.6,330.2,141,326.5,141,322z" fill="#34C1D8"/><path d="M446.1,335.2h-297c-7.3,0-13.2-5.9-13.2-13.2v-61.4c0-7.3,5.9-13.2,13.2-13.2h297      c7.3,0,13.2,5.9,13.2,13.2V322C459.3,329.3,453.4,335.2,446.1,335.2z M149.2,257.4c-1.8,0-3.2,1.4-3.2,3.2V322      c0,1.8,1.4,3.2,3.2,3.2h297c1.8,0,3.2-1.4,3.2-3.2v-61.4c0-1.8-1.4-3.2-3.2-3.2H149.2z" fill="#4A4F59"/></g><g><g><rect fill="#4A4F59" height="77.8" width="10" x="407.7" y="252.4"/></g><g><rect fill="#4A4F59" height="77.8" width="10" x="177.6" y="252.4"/></g></g></g><g><g><path d="M116.7,399.8v-61.4c0-4.5,3.7-8.2,8.2-8.2h345.5c4.5,0,8.2,3.7,8.2,8.2v61.4c0,4.5-3.7,8.2-8.2,8.2      H124.9C120.4,407.9,116.7,404.3,116.7,399.8z" fill="#F26329"/><path d="M470.4,412.9H124.9c-7.3,0-13.2-5.9-13.2-13.2v-61.4c0-7.3,5.9-13.2,13.2-13.2h345.5      c7.3,0,13.2,5.9,13.2,13.2v61.4C483.6,407,477.7,412.9,470.4,412.9z M124.9,335.2c-1.8,0-3.2,1.4-3.2,3.2v61.4      c0,1.8,1.4,3.2,3.2,3.2h345.5c1.8,0,3.2-1.4,3.2-3.2v-61.4c0-1.8-1.4-3.2-3.2-3.2H124.9z" fill="#4A4F59"/></g><g><g><rect fill="#4A4F59" height="77.8" width="10" x="425.5" y="330.2"/></g><g><rect fill="#4A4F59" height="77.8" width="10" x="159.8" y="330.2"/></g></g></g></g><g><g><g><path d="M396.3,243.8c-11,23.7-66.4,39.7-98.6,39.7c-26.9,0-84.4-14.7-98.6-39.7v-60.2h197.2V243.8z" fill="#FFFFFF"/><path d="M297.6,288.5c-27.6,0-87.2-14.5-103-42.3l-0.7-1.1v-66.6h207.2v66.3l-0.5,1      C388.8,271.9,331.7,288.5,297.6,288.5z M204,242.4c14.2,22.4,68.2,36.1,93.6,36.1c30.6,0,82.7-15,93.6-35.9v-54.1H204V242.4z" fill="#4A4F59"/></g><g><path d="M441.9,179.9l-140.7,48.4c-2.3,0.8-4.9,0.8-7.2,0l-140.7-48.4c-10-3.4-10-17.5,0-20.9L294,110.6      c2.3-0.8,4.9-0.8,7.2,0L441.9,159C451.9,162.4,451.9,176.5,441.9,179.9z" fill="#FFFFFF"/><path d="M297.6,233.9c-1.8,0-3.5-0.3-5.2-0.9l-140.7-48.4c-6.6-2.3-10.8-8.2-10.8-15.2s4.3-12.9,10.8-15.2      l140.7-48.4c3.4-1.2,7.1-1.2,10.4,0l140.7,48.4c6.6,2.3,10.8,8.2,10.8,15.2s-4.3,12.9-10.8,15.2L302.9,233      C301.2,233.6,299.4,233.9,297.6,233.9z M297.6,115c-0.7,0-1.3,0.1-2,0.3L155,163.7c-3.8,1.3-4.1,4.7-4.1,5.7s0.3,4.4,4.1,5.7      l140.7,48.4c1.3,0.4,2.7,0.4,3.9,0l140.7-48.4c3.8-1.3,4.1-4.7,4.1-5.7s-0.3-4.4-4.1-5.7l-140.7-48.4      C299,115.1,298.3,115,297.6,115z" fill="#4A4F59"/></g></g><g><path d="M396.3,330.5c-2.8,0-5-2.2-5-5v-27.3c0-42.4-15.9-76.1-47.4-100.2c-23.5-18-47.1-23.6-47.4-23.6     c-2.7-0.6-4.4-3.3-3.8-6c0.6-2.7,3.3-4.4,6-3.8c1,0.2,26,6.1,51.2,25.4c23.4,17.9,51.3,51.2,51.3,108.1v27.3     C401.3,328.2,399,330.5,396.3,330.5z" fill="#FED23E"/></g><g><circle cx="396.3" cy="292.6" fill="#FED23E" r="16.4"/></g></g></g></svg>