<?xml version="1.0" ?><svg height="32" id="svg2" version="1.1" viewBox="0 0 32 32.000001" width="32" xmlns="http://www.w3.org/2000/svg" xmlns:cc="http://creativecommons.org/ns#" xmlns:dc="http://purl.org/dc/elements/1.1/" xmlns:inkscape="http://www.inkscape.org/namespaces/inkscape" xmlns:rdf="http://www.w3.org/1999/02/22-rdf-syntax-ns#" xmlns:sodipodi="http://sodipodi.sourceforge.net/DTD/sodipodi-0.dtd" xmlns:svg="http://www.w3.org/2000/svg" xmlns:xlink="http://www.w3.org/1999/xlink"><defs id="defs4"><linearGradient gradientTransform="matrix(1.0252359,0,0,1.0252359,-20.718291,23.574685)" gradientUnits="userSpaceOnUse" id="linearGradient3278" x1="906.95245" x2="931.37909" xlink:href="#linearGradient3892" y1="515.91547" y2="546.09399"/><linearGradient id="linearGradient3892"><stop id="stop3894" offset="0" style="stop-color:#ffd800;stop-opacity:1"/><stop id="stop3896" offset="1" style="stop-color:#ff6100;stop-opacity:1"/></linearGradient><linearGradient gradientTransform="matrix(1.0252359,0,0,1.0252359,-925.81244,491.6824)" gradientUnits="userSpaceOnUse" id="linearGradient3396" x1="906.95245" x2="931.37909" xlink:href="#linearGradient3892" y1="515.91547" y2="546.09399"/></defs><g id="layer1" transform="translate(0,-1020.3622)"><g id="g3009"><rect height="32" id="rect3266" rx="6.7626715" ry="6.7626715" style="fill:url(#linearGradient3396);fill-opacity:1;stroke:none" width="32" x="0" y="1020.3622"/><path d="M 15.875 8 A 0.50103469 0.50103469 0 0 0 15.625 8.15625 L 8.15625 15.6875 A 0.50132952 0.50132952 0 0 0 8.84375 16.40625 L 10 15.25 L 10 21 C 10 22.0404 10.096776 22.81005 10.625 23.34375 C 11.153224 23.87755 11.927083 24 12.96875 24 L 18.96875 24 C 20.010417 24 20.807661 23.87425 21.34375 23.34375 C 21.879839 22.81325 22 22.043 22 21 L 22 15.25 L 23.125 16.40625 A 0.50103469 0.50103469 0 0 0 23.5 16.5625 A 0.50127492 0.50127492 0 0 0 23.53125 15.53125 L 23.6875 15.53125 L 22 13.84375 L 22 10.9375 A 0.50004998 0.50004998 0 0 0 21.5 10.4375 A 0.50004998 0.50004998 0 0 0 21 10.9375 L 21 12.8125 L 16.34375 8.15625 A 0.50103469 0.50103469 0 0 0 16 8 A 0.50103469 0.50103469 0 0 0 15.875 8 z M 16 9.21875 L 21 14.25 L 21 21 C 21 21.957 20.846841 22.43665 20.625 22.65625 C 20.403159 22.87575 19.927083 23 18.96875 23 L 18 23 L 18 18.5 A 0.50004998 0.50004998 0 0 0 17.5 18 L 14.5 18 A 0.50004998 0.50004998 0 0 0 14 18.5 L 14 23 L 12.96875 23 C 12.010417 23 11.557726 22.87245 11.34375 22.65625 C 11.129775 22.43995 11 21.9597 11 21 L 11 14.25 L 16 9.21875 z M 16 12 C 14.901353 12 14 12.9014 14 14 C 14 15.0987 14.901353 16 16 16 C 17.098647 16 18 15.0987 18 14 C 18 12.9014 17.098647 12 16 12 z M 16 13 C 16.558207 13 17 13.4418 17 14 C 17 14.5582 16.558207 15 16 15 C 15.441793 15 15 14.5582 15 14 C 15 13.4418 15.441793 13 16 13 z M 15 19 L 17 19 L 17 23 L 15 23 L 15 19 z " id="path4244" style="font-size:medium;font-style:normal;font-variant:normal;font-weight:normal;font-stretch:normal;text-indent:0;text-align:start;text-decoration:none;line-height:normal;letter-spacing:normal;word-spacing:normal;text-transform:none;direction:ltr;block-progression:tb;writing-mode:lr-tb;text-anchor:start;baseline-shift:baseline;color:#000000;fill:#ffffff;fill-opacity:1;fill-rule:evenodd;stroke:none;visibility:visible;display:inline;overflow:visible;enable-background:accumulate;font-family:sans-serif" transform="translate(-5e-7,1020.3622)"/></g></g></svg>