<?xml version="1.0" ?><svg data-name="Layer 42" height="24" id="Layer_42" viewBox="0 0 24 24" width="24" xmlns="http://www.w3.org/2000/svg"><title/><path d="M18,11H17l-1,5h2a2,2,0,0,0,2-2V13a2,2,0,0,0-2-2Z" style="fill:#e36359"/><path d="M18,9H3v5.5A7.5,7.5,0,0,0,10.5,22h0A7.5,7.5,0,0,0,18,14.5V9Z" style="fill:#fa6d62"/><path d="M10.62451,7.75a.75.75,0,0,1-.53027-1.28027.53283.53283,0,0,0,0-.752l-.1875-.1875a2.03405,2.03405,0,0,1,0-2.873l.1875-.1875a.74992.74992,0,1,1,1.06055,1.06055l-.1875.1875a.53283.53283,0,0,0,0,.752l.1875.1875a2.03405,2.03405,0,0,1,0,2.873A.74757.74757,0,0,1,10.62451,7.75Z" style="fill:#ffbe4d"/><path d="M14.563,7.75a.75.75,0,0,1-.53027-1.28027.53283.53283,0,0,0,0-.752l-.1875-.1875a2.03405,2.03405,0,0,1,0-2.873l.1875-.1875a.74992.74992,0,0,1,1.06055,1.06055l-.1875.1875a.53283.53283,0,0,0,0,.752l.1875.1875a2.03405,2.03405,0,0,1,0,2.873A.74757.74757,0,0,1,14.563,7.75Z" style="fill:#ffbe4d"/><path d="M6.62451,7.75a.75.75,0,0,1-.53027-1.28027.53283.53283,0,0,0,0-.752l-.1875-.1875a2.03405,2.03405,0,0,1,0-2.873l.1875-.1875A.74992.74992,0,0,1,7.15479,3.53027l-.1875.1875a.53283.53283,0,0,0,0,.752l.1875.1875a2.03405,2.03405,0,0,1,0,2.873A.74757.74757,0,0,1,6.62451,7.75Z" style="fill:#ffbe4d"/></svg>