<?xml version="1.0" ?><!DOCTYPE svg  PUBLIC '-//W3C//DTD SVG 1.1//EN'  'http://www.w3.org/Graphics/SVG/1.1/DTD/svg11.dtd'><svg enable-background="new 0 0 512 512" height="512px" id="Calque_1" version="1.1" viewBox="0 0 512 512" width="512px" xml:space="preserve" xmlns="http://www.w3.org/2000/svg" xmlns:xlink="http://www.w3.org/1999/xlink"><g><path d="M500,298h-25.98l-47.28-165.24c5.66-3.1,9.5-9.11,9.5-16c0-10.06-8.18-18.24-18.24-18.24   c-3.84,0-7.4,1.2-10.34,3.23c-41.96-35.97-86.53-48.17-117.89-51.88c-1.53-17.3-16.08-30.91-33.77-30.91s-32.24,13.61-33.77,30.91   c-31.36,3.71-75.93,15.91-117.89,51.88c-2.94-2.03-6.5-3.23-10.34-3.23c-10.06,0-18.24,8.18-18.24,18.24c0,6.89,3.84,12.9,9.5,16   L37.98,298H12c-2.21,0-4,1.79-4,4c0,47.42,38.58,86,86,86s86-38.58,86-86c0-2.21-1.79-4-4-4h-25.98l-47.28-165.24   c5.66-3.1,9.5-9.11,9.5-16c0-3.33-0.91-6.44-2.47-9.13c40.07-34.26,82.57-46.06,112.69-49.73c1.36,9.08,6.33,16.99,13.4,22.23   v71.11h-0.51c-7.31,0-13.26,5.95-13.26,13.26s5.95,13.26,13.26,13.26h0.12l-6.77,72.59l-19.87,26.84   c-0.51,0.69-0.79,1.53-0.79,2.38v137.3c-9.04,2.48-17.43,5.67-24.89,9.53c-20.36,10.53-31.58,24.83-31.58,40.27v22.37   c0,2.21,1.79,4,4,4h200.86c2.21,0,4-1.79,4-4v-22.35c0,0,0-0.01,0-0.02c0-15.44-11.22-29.74-31.58-40.27   c-7.46-3.86-15.85-7.05-24.9-9.53v-137.3c0-0.85-0.27-1.69-0.78-2.38l-19.87-26.84l-6.77-72.59h0.12c7.31,0,13.26-5.95,13.26-13.26   s-5.95-13.26-13.26-13.26h-0.51V80.13c7.07-5.24,12.04-13.15,13.39-22.23c30.13,3.67,72.63,15.47,112.7,49.74   c-1.56,2.68-2.47,5.79-2.47,9.12c0,6.89,3.84,12.9,9.5,16L361.98,298H336c-2.21,0-4,1.79-4,4c0,47.42,38.58,86,86,86   s86-38.58,86-86C504,299.79,502.21,298,500,298z M147,306h24.9c-2.09,41.16-36.23,74-77.9,74s-75.81-32.84-77.9-74H41   c0.01,0,0.01,0,0.01,0h105.98C146.99,306,146.99,306,147,306z M141.7,298H46.31l46.65-163.05C93.3,134.97,93.65,135,94,135   s0.7-0.03,1.05-0.05L141.7,298z M95.25,126.91l2.6-9.05c0.6-2.12-0.63-4.34-2.75-4.95c-2.12-0.6-4.34,0.63-4.95,2.75l-2.59,9.05   c-2.31-1.88-3.8-4.74-3.8-7.95c0-5.65,4.59-10.24,10.24-10.24s10.24,4.59,10.24,10.24C104.24,121.98,100.31,126.29,95.25,126.91z    M352.43,485.04H159.57v-14.37h192.86V485.04z M299.18,423.89c9.52,2.41,18.3,5.63,26,9.61c15.65,8.1,25.02,18.34,26.88,29.17   H159.94c1.86-10.83,11.23-21.07,26.88-29.17c7.7-3.98,16.48-7.2,26-9.61c0.04-0.01,0.08-0.03,0.12-0.04   c13.22-3.34,27.86-5.11,43.06-5.11c15.19,0,29.82,1.77,43.03,5.11C299.08,423.86,299.13,423.88,299.18,423.89z M295.95,280.89   v134.02c-12.49-2.73-26.01-4.17-39.95-4.17c-13.93,0-27.46,1.44-39.96,4.17V280.89l19.76-26.68c0.43-0.58,0.7-1.28,0.76-2   l6.94-74.45h25l6.94,74.45c0.06,0.72,0.33,1.42,0.76,2L295.95,280.89z M276.65,159.24c2.9,0,5.26,2.36,5.26,5.26   s-2.36,5.26-5.26,5.26h-41.3c-2.9,0-5.26-2.36-5.26-5.26s2.36-5.26,5.26-5.26H276.65z M243.86,151.24V84.52   c3.77,1.45,7.86,2.26,12.14,2.26c4.28,0,8.37-0.81,12.14-2.26v66.72H243.86z M256,78.78c-14.29,0-25.91-11.62-25.91-25.91   S241.71,26.96,256,26.96c14.29,0,25.91,11.62,25.91,25.91S270.29,78.78,256,78.78z M407.76,116.76c0-5.65,4.59-10.24,10.24-10.24   s10.24,4.59,10.24,10.24c0,3.21-1.49,6.07-3.8,7.95l-2.59-9.05c-0.61-2.12-2.82-3.35-4.95-2.75c-2.12,0.61-3.35,2.83-2.75,4.95   l2.6,9.05C411.69,126.29,407.76,121.98,407.76,116.76z M416.95,134.95c0.35,0.02,0.7,0.05,1.05,0.05s0.7-0.03,1.04-0.05L465.69,298   H370.3L416.95,134.95z M418,380c-41.67,0-75.81-32.84-77.9-74H365c0.01,0,0.01,0,0.01,0h105.98c0,0,0,0,0.01,0h24.9   C493.81,347.16,459.67,380,418,380z" fill="#054776"/><linearGradient gradientUnits="userSpaceOnUse" id="SVGID_1_" x1="159.57" x2="352.43" y1="477.855" y2="477.855"><stop offset="0" style="stop-color:#C1E9F4"/><stop offset="1" style="stop-color:#97DCFF"/></linearGradient><rect fill="url(#SVGID_1_)" height="14.37" width="192.86" x="159.57" y="470.67"/><linearGradient gradientUnits="userSpaceOnUse" id="SVGID_2_" x1="159.94" x2="352.06" y1="440.705" y2="440.705"><stop offset="0" style="stop-color:#77D6F7"/><stop offset="1" style="stop-color:#4AC7FF"/></linearGradient><path d="M352.06,462.67H159.94c1.86-10.83,11.23-21.07,26.88-29.17c7.7-3.98,16.48-7.2,26-9.61   c0.04-0.01,0.08-0.03,0.12-0.04c13.22-3.34,27.86-5.11,43.06-5.11c15.19,0,29.82,1.77,43.03,5.11c0.05,0.01,0.1,0.03,0.15,0.04   c9.52,2.41,18.3,5.63,26,9.61C340.83,441.6,350.2,451.84,352.06,462.67z" fill="url(#SVGID_2_)"/><path d="M352.06,462.67h-2.79c-4.15-7.82-12.36-15.1-24.09-21.17c-7.7-3.98-16.48-7.2-26-9.61   c-0.05-0.01-0.1-0.03-0.15-0.04c-13.21-3.34-27.84-5.11-43.03-5.11c-15.2,0-29.84,1.77-43.06,5.11c-0.04,0.01-0.08,0.03-0.12,0.04   c-9.52,2.41-18.3,5.63-26,9.61c-11.73,6.07-19.94,13.35-24.09,21.17h-2.79c1.86-10.83,11.23-21.07,26.88-29.17   c7.7-3.98,16.48-7.2,26-9.61c0.04-0.01,0.08-0.03,0.12-0.04c13.22-3.34,27.86-5.11,43.06-5.11c15.19,0,29.82,1.77,43.03,5.11   c0.05,0.01,0.1,0.03,0.15,0.04c9.52,2.41,18.3,5.63,26,9.61C340.83,441.6,350.2,451.84,352.06,462.67z" fill="#FFFFFF" opacity="0.5"/><linearGradient gradientUnits="userSpaceOnUse" id="SVGID_3_" x1="230.09" x2="281.91" y1="52.87" y2="52.87"><stop offset="0" style="stop-color:#77D6F7"/><stop offset="1" style="stop-color:#4AC7FF"/></linearGradient><path d="M281.91,52.87c0,14.29-11.62,25.91-25.91,25.91c-14.29,0-25.91-11.62-25.91-25.91   S241.71,26.96,256,26.96C270.29,26.96,281.91,38.58,281.91,52.87z" fill="url(#SVGID_3_)"/><linearGradient gradientUnits="userSpaceOnUse" id="SVGID_4_" x1="237.09" x2="274.91" y1="52.87" y2="52.87"><stop offset="0" style="stop-color:#C1E9F4"/><stop offset="1" style="stop-color:#97DCFF"/></linearGradient><path d="M274.91,52.87c0,10.429-8.481,18.91-18.91,18.91s-18.91-8.481-18.91-18.91s8.481-18.91,18.91-18.91   S274.91,42.441,274.91,52.87z" fill="url(#SVGID_4_)"/><linearGradient gradientUnits="userSpaceOnUse" id="SVGID_5_" x1="243.86" x2="268.14" y1="117.88" y2="117.88"><stop offset="0" style="stop-color:#77D6F7"/><stop offset="1" style="stop-color:#4AC7FF"/></linearGradient><path d="M268.14,84.52v66.72h-24.28V84.52c3.77,1.45,7.86,2.26,12.14,2.26   C260.28,86.78,264.37,85.97,268.14,84.52z" fill="url(#SVGID_5_)"/><linearGradient gradientUnits="userSpaceOnUse" id="SVGID_6_" x1="230.09" x2="281.91" y1="164.5" y2="164.5"><stop offset="0" style="stop-color:#E8F4F9"/><stop offset="1" style="stop-color:#D7F2FF"/></linearGradient><path d="M281.91,164.5c0,2.9-2.36,5.26-5.26,5.26h-41.3c-2.9,0-5.26-2.36-5.26-5.26s2.36-5.26,5.26-5.26   h41.3C279.55,159.24,281.91,161.6,281.91,164.5z" fill="url(#SVGID_6_)"/><linearGradient gradientUnits="userSpaceOnUse" id="SVGID_7_" x1="340.1" x2="495.9" y1="343" y2="343"><stop offset="0" style="stop-color:#E8F4F9"/><stop offset="1" style="stop-color:#D7F2FF"/></linearGradient><path d="M495.9,306c-2.09,41.16-36.23,74-77.9,74s-75.81-32.84-77.9-74H365c0.01,0,0.01,0,0.01,0h105.98   c0,0,0,0,0.01,0H495.9z" fill="url(#SVGID_7_)"/><linearGradient gradientUnits="userSpaceOnUse" id="SVGID_8_" x1="216.04" x2="295.95" y1="296.335" y2="296.335"><stop offset="0" style="stop-color:#77D6F7"/><stop offset="1" style="stop-color:#4AC7FF"/></linearGradient><path d="M295.95,280.89v134.02c-12.49-2.73-26.01-4.17-39.95-4.17c-13.93,0-27.46,1.44-39.96,4.17V280.89   l19.76-26.68c0.43-0.58,0.7-1.28,0.76-2l6.94-74.45h25l6.94,74.45c0.06,0.72,0.33,1.42,0.76,2L295.95,280.89z" fill="url(#SVGID_8_)"/><path d="M268.14,84.52v66.72h-6.33V86.27C264,85.89,266.12,85.3,268.14,84.52z" opacity="0.2"/><path d="M295.95,280.89v134.02c-2.08-0.46-4.19-0.88-6.33-1.26V280.89l-19.75-26.68c-0.43-0.58-0.7-1.28-0.76-2   l-6.94-74.45h6.33l6.94,74.45c0.06,0.72,0.33,1.42,0.76,2L295.95,280.89z" opacity="0.2"/><path d="M243.905,84.52c2.02,0.78,4.14,1.37,6.33,1.75v64.97h-6.33V84.52z" fill="#FFFFFF" opacity="0.5"/><path d="M243.545,177.76h6.33l-6.94,74.45c-0.06,0.72-0.33,1.42-0.76,2l-19.76,26.68v132.76   c-2.14,0.38-4.25,0.8-6.33,1.26V280.89l19.76-26.68c0.43-0.58,0.7-1.28,0.76-2L243.545,177.76z" fill="#FFFFFF" opacity="0.5"/><linearGradient gradientUnits="userSpaceOnUse" id="SVGID_9_" x1="16.1" x2="171.9" y1="343" y2="343"><stop offset="0" style="stop-color:#E8F4F9"/><stop offset="1" style="stop-color:#D7F2FF"/></linearGradient><path d="M171.9,306c-2.09,41.16-36.23,74-77.9,74s-75.81-32.84-77.9-74H41c0.01,0,0.01,0,0.01,0h105.98   c0,0,0,0,0.01,0H171.9z" fill="url(#SVGID_9_)"/><path d="M171.9,306c-2.09,41.16-36.23,74-77.9,74s-75.81-32.84-77.9-74h1.1c6.48,36.52,38.45,64.33,76.8,64.33   s70.32-27.81,76.8-64.33H171.9z" opacity="0.2"/><path d="M495.9,306c-2.09,41.16-36.23,74-77.9,74s-75.81-32.84-77.9-74h1.1c6.48,36.52,38.45,64.33,76.8,64.33   s70.32-27.81,76.8-64.33H495.9z" opacity="0.2"/></g></svg>