<?xml version="1.0" ?><svg id="Слой_1" style="enable-background:new 0 0 512 512;" version="1.1" viewBox="0 0 512 512" xml:space="preserve" xmlns="http://www.w3.org/2000/svg" xmlns:xlink="http://www.w3.org/1999/xlink"><style type="text/css">
	.st0{fill:#344154;}
	.st1{fill:#35B4CF;}
	.st2{fill:#FFC524;}
	.st3{fill:none;stroke:#344154;stroke-width:11.4;stroke-linecap:round;stroke-linejoin:round;stroke-miterlimit:10;}
</style><g><g><path class="st0" d="M414.4,423.4h-29.5c-3.2,0-5.8-2.6-5.8-5.8s2.6-5.8,5.8-5.8h29.5c3.2,0,5.8,2.6,5.8,5.8    S417.6,423.4,414.4,423.4z"/></g><g><path class="st0" d="M433.9,346.8h-43.4c-3.2,0-5.8-2.6-5.8-5.8s2.6-5.8,5.8-5.8h43.4c3.2,0,5.8,2.6,5.8,5.8    S437.1,346.8,433.9,346.8z"/></g><g><path class="st0" d="M448.4,269.8h-52.7c-3.2,0-5.8-2.6-5.8-5.8s2.6-5.8,5.8-5.8h52.7c3.2,0,5.8,2.6,5.8,5.8    S451.6,269.8,448.4,269.8z"/></g><g><path class="st0" d="M123.1,494H5.8c-3.2,0-5.8-2.6-5.8-5.8V170.1c0-3.2,2.6-5.8,5.8-5.8h117.3c12.2,0,22,9.9,22,22V472    C145.1,484.1,135.2,494,123.1,494z M11.6,482.4h111.5c5.8,0,10.5-4.7,10.5-10.5V186.4c0-5.8-4.7-10.5-10.5-10.5H11.6V482.4z"/></g><g><path class="st0" d="M413.1,493.4c-97.7,0-167.4-11.7-208.7-21.5c-45.1-10.7-66.7-21.3-67.6-21.7c-2.9-1.4-4-4.9-2.6-7.8    c1.4-2.9,4.9-4,7.8-2.6c0.4,0.2,21.9,10.7,65.7,21c40.6,9.6,109.2,21,205.5,21c15.6,0,33.9-7.6,33.9-29.1    c0-16.7-14-29.3-32.6-29.3c-3.2,0-5.8-2.6-5.8-5.8s2.6-5.8,5.8-5.8h16.5c17.9,0,32.8-13.4,33.9-30.5c0.6-9.1-2.5-17.8-8.7-24.5    c-6.2-6.7-14.7-10.3-23.8-10.3c-3.2,0-5.8-2.6-5.8-5.8s2.6-5.8,5.8-5.8h16.5c17.9,0,32.8-13.4,33.9-30.4    c0.6-9.1-2.5-17.8-8.7-24.5c-6.2-6.7-14.7-10.3-23.8-10.3l0,0c-3.2,0-5.8-2.6-5.8-5.8s2.6-5.8,5.8-5.8l16.5,0    c17.9,0,32.8-13.4,33.9-30.5c0.6-9.1-2.5-17.8-8.7-24.5c-6.2-6.7-14.7-10.3-23.8-10.3H327.6c-7.4,0-14.3-3.3-18.9-9.1    c-4.6-5.7-6.4-13.1-4.8-20.2c8.9-41.1,4.2-81.3-14.2-119.6c-6.5-13.6-19.6-15.9-28.9-13.8c-8.9,2-19.4,9.6-19.4,24.1    c0,71.7-27.3,110-50.2,129.6c-25,21.4-50,25.5-51,25.6c-3.2,0.5-6.1-1.7-6.6-4.8c-0.5-3.2,1.7-6.1,4.8-6.6    c0.2,0,23.2-3.9,45.7-23.4c30.3-26.2,45.6-66.7,45.6-120.4c0-20,14.3-32.2,28.4-35.4c14.5-3.3,33,1.6,41.9,20.1    c19.5,40.6,24.6,83.4,15.1,127.1c-0.8,3.7,0.1,7.5,2.5,10.5c2.4,3,6,4.7,9.9,4.7h140.2c12.2,0,23.9,5.1,32.3,14    c8.4,9,12.7,20.8,11.9,33.2c-1.2,19.3-15.3,35.1-33.8,39.8c1.5,1.2,2.8,2.5,4.1,3.9c8.4,9,12.7,20.8,11.9,33.2    c-1.2,19.3-15.3,35.1-33.8,39.8c1.5,1.2,2.8,2.5,4.1,3.9c8.4,9,12.7,20.8,11.9,33.2c-1.2,18.9-14.7,34.4-32.6,39.5    c9.2,7.4,14.8,18.4,14.8,31.1C458.5,480.9,435.7,493.4,413.1,493.4z"/></g><g><path class="st2" d="M115.8,377.6v87.1H29.3V330.1C52.1,354,82.1,371,115.8,377.6z"/></g></g></svg>