<?xml version="1.0" ?><svg id="Layer_1" style="enable-background:new 0 0 263.159 216.172;" version="1.1" viewBox="0 0 263.159 216.172" xml:space="preserve" xmlns="http://www.w3.org/2000/svg" xmlns:xlink="http://www.w3.org/1999/xlink"><g><path d="M108.815,61.489l-30.632,7.886l-31.05-16.754c-0.469-0.254-0.953-0.453-1.444-0.605c-0.745-0.382-1.535-0.684-2.373-0.889   c-8.547-2.091-20.901,2.601-25.87,17.266c-4.778,14.377-6.854,25.187-6.694,38.22c0.065,5.283,0.487,10.92,1.262,17.325   c1.565,7.868,5.009,12.265,9.188,14.693c0.856,0.781,1.83,1.462,2.923,1.998l38.173,18.712l10.331,44.867   c1.332,5.784,6.478,9.698,12.171,9.698c0.929,0,1.872-0.104,2.815-0.322c6.728-1.549,10.926-8.259,9.377-14.986l-11.667-50.667   c-0.846-3.669-3.299-6.762-6.68-8.419l-31.102-15.246c-0.598-5.719-0.456-11.712,0.079-17.662c0.11-1.224,0.235-2.444,0.377-3.661   L31.805,80.617c-1.615-2.227-2.267-4.95-1.834-7.667s1.897-5.103,4.124-6.718c1.771-1.284,3.86-1.962,6.041-1.962   c3.294,0,6.414,1.59,8.345,4.253l4.466,6.158c0.058-0.217,0.115-0.435,0.166-0.654l20.231,10.916   c1.176,0.636,2.483,0.96,3.799,0.96c0.667,0,1.338-0.084,1.995-0.253l33.667-8.667c4.279-1.102,6.854-5.463,5.753-9.741   C117.455,62.963,113.094,60.384,108.815,61.489z"/><circle cx="58.943" cy="26.459" r="22.5"/><path d="M57.087,113.854l-7.628,1.034c-0.04,2.66,0.031,5.296,0.252,7.88l29.946,14.679c0.712,0.349,1.374,0.767,2.011,1.216   l3.659-10.209c1.473-4.11,0.695-8.691-2.053-12.084c-0.224-0.276-0.473-0.523-0.717-0.776l-20.611-0.392   C60.225,115.168,58.559,114.685,57.087,113.854z"/><path d="M43.399,152.639l2.061,12.95l-3.917,10.93c-1.584,4.419-0.523,9.139,2.359,12.441H9.797l6.593-41.417h16.613l-9.891-4.849   c-0.808-0.396-1.578-0.875-2.308-1.42H8.542c-1.654,0-3.008,1.353-3.008,3.008v0.253c0,1.654,1.353,3.008,3.008,3.008h2.105   L0,214.428l5.601,0.892l3.198-20.091h41.379l3.198,20.091l5.601-0.892l-3.407-21.405c4.233-0.783,7.95-3.725,9.507-8.069   l0.461-1.287l-5.237-22.743L43.399,152.639z"/><path d="M46.618,69.873c-2.593-3.577-7.596-4.373-11.173-1.779c-3.576,2.594-4.373,7.596-1.778,11.173l22,30.333   c1.473,2.032,3.814,3.254,6.323,3.302l43.667,0.833c0.052,0.001,0.104,0.001,0.155,0.001c4.348,0,7.912-3.482,7.996-7.847   c0.084-4.417-3.429-8.067-7.847-8.151l-39.683-0.757L46.618,69.873z"/><path d="M193.374,198.138c-7.27,0.001-13.557-5.429-14.625-12.63l-1.703-11.481l-4.65,27.565   c-1.148,6.808,3.439,13.257,10.247,14.405c0.704,0.118,1.403,0.176,2.094,0.176c5.99,0,11.281-4.319,12.311-10.423l1.437-8.517   c-0.93,0.341-1.906,0.593-2.923,0.744C194.838,198.084,194.103,198.138,193.374,198.138z"/><path d="M254.617,147.943c1.654,0,3.008-1.354,3.008-3.008v-0.253c0-1.654-1.353-3.008-3.008-3.008h-32.702l1.877-1.538h-21.847   l2.887,19.466l0.77-4.566l8.66-7.094h0.565l-10.647,66.885l5.601,0.892l3.198-20.091h41.379l3.198,20.091l5.601-0.892   l-10.647-66.885H254.617z M253.362,189.36h-39.383l6.593-41.417h26.198L253.362,189.36z"/><circle cx="203.42" cy="22.5" r="22.5"/><path d="M233.322,137.837c3.967,0,7.496-1.854,9.786-4.737c3.053-2.623,5.494-6.685,6.741-12.954   c2.686-22.203,1.281-35.34-5.433-55.544c-4.97-14.665-17.324-19.357-25.871-17.266c-8.544,2.089-12.352,13.984-9.527,23.95   c0.719,3.761,1.587,7.967,2.428,12.431l2.95-17.583c0.835-4.982,5.102-8.598,10.145-8.598c0.572,0,1.15,0.048,1.719,0.144   c2.712,0.455,5.086,1.939,6.683,4.18s2.226,4.969,1.771,7.682l-6.5,38.75c-0.836,4.981-5.104,8.597-10.151,8.597   c-0.378,0-0.759-0.021-1.143-0.064c-2.776-0.302-5.971-0.462-9.231-0.462c-13.1,0-23.36,2.375-27.447,6.355   c-1.935,1.883-4.485,2.92-7.185,2.92c-0.254,0-0.505-0.019-0.756-0.037c0.011,0.523,0.045,1.047,0.122,1.571l8.601,58   c0.921,6.208,6.257,10.668,12.35,10.668c0.61,0,1.228-0.044,1.85-0.137c6.828-1.013,11.543-7.37,10.531-14.198l-6.476-43.667   H233.322z"/><path d="M173.057,123.337c2.011,0,4.025-0.754,5.58-2.268c7.22-7.03,27.474-7.735,38.538-6.531c4.202,0.468,8.068-2.44,8.771-6.628   l6.5-38.75c0.731-4.357-2.209-8.482-6.566-9.213c-4.36-0.734-8.482,2.208-9.213,6.566l-5.304,31.615   c-11.504-0.377-32.706,0.588-43.888,11.477c-3.165,3.083-3.233,8.147-0.15,11.313C168.892,122.528,170.973,123.337,173.057,123.337   z"/></g></svg>