<?xml version="1.0" ?><svg enable-background="new 0 0 387.2328 263.7189" id="Layer_1" version="1.1" viewBox="0 0 387.2328 263.7189" xml:space="preserve" xmlns="http://www.w3.org/2000/svg" xmlns:xlink="http://www.w3.org/1999/xlink"><g><path d="M42.8272,88.6196v41.7732v16.4858l0.625,9.6438l6.1973,95.6323c0.4419,6.8157,6.3252,11.9792,13.1367,11.5378   c2.7085-0.1753,5.1479-1.2197,7.0874-2.8308c1.9395,1.6111,4.3789,2.6555,7.0869,2.8308   c6.812,0.4414,12.6953-4.7222,13.1367-11.5378l6.1978-95.6335l0.624-9.634v-16.4954V88.6191l34.8254-63.9003l34.826,63.9005   v41.7735v16.4858l0.625,9.6438l6.1973,95.6323c0.4419,6.8157,6.3252,11.9792,13.1367,11.5378   c2.7085-0.1753,5.1479-1.2197,7.0874-2.8308c1.9395,1.6111,4.3789,2.6555,7.0869,2.8308   c6.812,0.4414,12.6953-4.7222,13.1367-11.5378l6.1978-95.6335l0.624-9.634v-16.4954V88.6199l34.826-63.9012l34.8254,63.9001v41.774   v16.4858l0.625,9.6438l6.1973,95.6323c0.4419,6.8157,6.3252,11.9792,13.1367,11.5378c2.7085-0.1753,5.1479-1.2197,7.0874-2.8308   c1.9395,1.6111,4.3789,2.6555,7.0869,2.8308c6.812,0.4414,12.6953-4.7222,13.1367-11.5378l6.1978-95.6335l0.624-9.634v-16.4954   V88.6199l41.8504-76.7902c2.1143-3.8794,0.6836-8.7383-3.1963-10.8525c-3.8789-2.1143-8.7383-0.6846-10.8525,3.1963   l-39.8846,73.1832h-29.9252L262.5127,4.1735c-0.0349-0.0641-0.0767-0.1218-0.113-0.1846   c-0.0865-0.1494-0.1741-0.2977-0.2705-0.4417c-0.058-0.0867-0.1203-0.1686-0.1812-0.2523   c-0.0924-0.127-0.1852-0.2533-0.2855-0.3751c-0.0765-0.0931-0.1572-0.1811-0.2374-0.2701   c-0.0923-0.1025-0.1844-0.2048-0.2826-0.3029c-0.098-0.0981-0.2003-0.1901-0.3027-0.2824   c-0.0891-0.0801-0.177-0.1609-0.2702-0.2375c-0.1221-0.1005-0.2486-0.1934-0.3758-0.2859   c-0.0833-0.0605-0.1647-0.1225-0.2509-0.1802c-0.146-0.0978-0.2964-0.1866-0.448-0.2743   c-0.0607-0.0352-0.1166-0.0756-0.1785-0.1093c-0.0189-0.0103-0.0385-0.0175-0.0573-0.0276   c-0.1511-0.0807-0.3063-0.1517-0.462-0.2224c-0.0905-0.0412-0.1798-0.0867-0.2711-0.1243c-0.1284-0.0527-0.26-0.0957-0.3909-0.1416   c-0.1206-0.0425-0.2404-0.0893-0.362-0.1257c-0.0944-0.0281-0.191-0.0477-0.2864-0.0723c-0.1578-0.0409-0.315-0.0844-0.4738-0.1153   c-0.0703-0.0137-0.1418-0.0199-0.2125-0.0317c-0.1826-0.0304-0.3651-0.0614-0.5482-0.0789   c-0.1187-0.0115-0.2385-0.0118-0.3577-0.0179c-0.1339-0.0067-0.2678-0.0189-0.4013-0.0189   c-0.2269-0.0004-0.4543,0.0128-0.6817,0.032c-0.0261,0.0023-0.0527,0.0014-0.0787,0.0039   c-0.2305,0.0218-0.4604,0.0571-0.6899,0.0994c-0.024,0.0045-0.0485,0.0062-0.0725,0.0108   c-0.1826,0.0353-0.3638,0.084-0.5451,0.1326c-0.072,0.0192-0.145,0.0334-0.2164,0.0547c-0.1328,0.0397-0.2635,0.0901-0.395,0.1371   c-0.1206,0.0428-0.2422,0.0823-0.3607,0.1308c-0.0943,0.0389-0.1866,0.0856-0.2802,0.1284   c-0.1537,0.0699-0.3071,0.1401-0.4565,0.2198c-0.0185,0.0099-0.0377,0.017-0.0562,0.0271   c-0.0604,0.0329-0.1147,0.0723-0.174,0.1065c-0.1539,0.0889-0.3067,0.1793-0.4549,0.2786   c-0.0835,0.0559-0.1624,0.116-0.2432,0.1746c-0.13,0.0944-0.2592,0.1894-0.3838,0.292c-0.0903,0.0743-0.1755,0.1526-0.262,0.2302   c-0.1053,0.0948-0.2105,0.1894-0.3112,0.2903c-0.0952,0.0952-0.1843,0.1945-0.274,0.2938c-0.083,0.092-0.1665,0.183-0.2456,0.2794   c-0.0978,0.119-0.1883,0.2424-0.2786,0.3663c-0.0627,0.0862-0.127,0.1705-0.1866,0.2598   c-0.0956,0.1429-0.1826,0.2903-0.2685,0.4385c-0.0367,0.0632-0.0787,0.1215-0.1139,0.1861l-39.8846,73.1832h-29.9249   L138.769,4.1735c-0.035-0.0641-0.0767-0.122-0.1132-0.1848c-0.0864-0.1492-0.1739-0.2974-0.2701-0.4412   c-0.058-0.0867-0.1204-0.1686-0.1813-0.2524c-0.0925-0.1271-0.1854-0.2535-0.2857-0.3754   c-0.0759-0.0924-0.1559-0.1796-0.2355-0.2679c-0.0933-0.1035-0.1863-0.2068-0.2854-0.3059   c-0.0961-0.0962-0.1965-0.1863-0.2969-0.277c-0.0914-0.0823-0.1816-0.1653-0.2774-0.2438   c-0.1185-0.0974-0.2415-0.1876-0.3649-0.2775c-0.0871-0.0635-0.1724-0.1284-0.2626-0.1887   c-0.1406-0.0941-0.2857-0.1794-0.4314-0.2641c-0.0652-0.0379-0.1253-0.0812-0.1919-0.1175   c-0.0203-0.011-0.0414-0.0189-0.0618-0.0297c-0.142-0.0757-0.288-0.1421-0.434-0.209c-0.1003-0.0461-0.1995-0.0963-0.3008-0.1379   c-0.1116-0.0457-0.2261-0.0825-0.3396-0.123c-0.1382-0.0496-0.2757-0.1026-0.4152-0.1442   c-0.062-0.0184-0.1256-0.0305-0.1881-0.0475c-0.1908-0.0518-0.3816-0.1025-0.5739-0.1396   c-0.0064-0.0013-0.013-0.0017-0.0194-0.0029c-0.2465-0.047-0.4937-0.0834-0.7412-0.1068c-0.0151-0.0015-0.0303-0.001-0.0453-0.0023   c-0.2385-0.0211-0.4772-0.034-0.7151-0.0336c-0.1227,0-0.2457,0.0117-0.3687,0.0173c-0.1305,0.0062-0.2615,0.007-0.3913,0.0196   c-0.1738,0.0167-0.347,0.0467-0.5204,0.075c-0.0801,0.0131-0.1611,0.0204-0.2407,0.0359c-0.1532,0.0298-0.305,0.0722-0.4572,0.1113   c-0.1008,0.0259-0.2028,0.0466-0.3025,0.0764c-0.1166,0.035-0.2315,0.08-0.3472,0.1206c-0.1364,0.0476-0.2733,0.0927-0.407,0.1475   c-0.0849,0.035-0.168,0.0774-0.2522,0.1156c-0.1627,0.0735-0.3246,0.1479-0.4824,0.2322c-0.0172,0.0092-0.035,0.0157-0.0521,0.0251   c-0.0568,0.0309-0.1077,0.0679-0.1634,0.1c-0.1586,0.0912-0.3157,0.1844-0.4682,0.2867c-0.0806,0.054-0.1567,0.1122-0.2349,0.1688   c-0.1326,0.0961-0.2642,0.193-0.3912,0.2976c-0.0888,0.073-0.1725,0.1501-0.2575,0.2264c-0.1066,0.0958-0.213,0.1915-0.3148,0.2936   c-0.0945,0.0945-0.1831,0.1932-0.2722,0.2919c-0.0834,0.0925-0.1674,0.184-0.2469,0.281   c-0.0974,0.1186-0.1876,0.2415-0.2776,0.3649c-0.063,0.0866-0.1276,0.1714-0.1876,0.2611   c-0.0953,0.1425-0.1819,0.2895-0.2676,0.4373c-0.0369,0.0635-0.0791,0.1221-0.1145,0.187L84.8356,77.3567H54.9104L15.0258,4.1735   c-2.1138-3.8794-6.9741-5.311-10.8525-3.1963C0.2934,3.0915-1.1372,7.9504,0.977,11.8297L42.8272,88.6196z"/><circle cx="69.8733" cy="49.1583" r="22.5"/><circle cx="193.6165" cy="49.1583" r="22.5"/><circle cx="317.3597" cy="49.1583" r="22.5"/></g></svg>