<?xml version="1.0" ?><!DOCTYPE svg  PUBLIC '-//W3C//DTD SVG 1.1//EN'  'http://www.w3.org/Graphics/SVG/1.1/DTD/svg11.dtd'><svg enable-background="new 0 0 128 128" height="128px" id="Layer_1" version="1.1" viewBox="0 0 128 128" width="128px" xml:space="preserve" xmlns="http://www.w3.org/2000/svg" xmlns:xlink="http://www.w3.org/1999/xlink"><g><rect fill="#221F1F" height="13.666" width="4" x="61.928" y="35.867"/><polygon fill="#221F1F" points="33.904,56.268 46.872,60.492 45.635,64.304 32.667,60.081  "/><polygon fill="#221F1F" points="51.393,82.04 54.628,84.396 46.612,95.452 43.376,93.098  "/><polygon fill="#221F1F" points="76.467,82.039 84.482,93.095 81.246,95.45 73.23,84.395  "/><polygon fill="#221F1F" points="93.952,56.263 95.188,60.076 82.221,64.298 80.984,60.486  "/><path d="M15.367,36.939C6.894,36.941,0,43.851,0,52.341c0,8.492,6.895,15.401,15.368,15.401   c8.473,0,15.368-6.91,15.369-15.401C30.736,43.851,23.842,36.941,15.367,36.939z M15.385,44.272c1.989,0,3.603,1.616,3.603,3.611   c0,1.993-1.613,3.608-3.603,3.608c-1.99,0-3.603-1.612-3.603-3.608C11.782,45.889,13.396,44.272,15.385,44.272z M15.635,60.704   c-2.995,0-5.637-1.507-7.217-3.805c1.392-2.118,3.825-3.527,6.596-3.527h0.74c2.928,0,5.482,1.571,6.826,3.891   C20.979,59.353,18.467,60.704,15.635,60.704z" fill="#221F1F"/><path d="M112.631,36.939c-8.475,0.002-15.367,6.911-15.367,15.402c0,8.492,6.896,15.401,15.367,15.401   c8.475,0,15.369-6.91,15.369-15.401C128,43.851,121.105,36.941,112.631,36.939z M112.648,44.272c1.986,0,3.602,1.616,3.602,3.611   c0,1.993-1.613,3.608-3.602,3.608c-1.99,0-3.604-1.612-3.604-3.608C109.044,45.889,110.658,44.272,112.648,44.272z M112.898,60.704   c-2.996,0-5.639-1.507-7.217-3.805c1.391-2.118,3.822-3.527,6.596-3.527h0.74c2.928,0,5.48,1.571,6.824,3.891   C118.242,59.353,115.73,60.704,112.898,60.704z" fill="#221F1F"/><path d="M63.588,2c-8.473,0.002-15.367,6.911-15.367,15.402c0,8.493,6.895,15.401,15.368,15.401   c8.474,0,15.368-6.91,15.37-15.401C78.957,8.911,72.063,2.001,63.588,2z M63.606,9.333c1.99,0,3.603,1.616,3.603,3.611   c0,1.993-1.613,3.608-3.603,3.608c-1.989,0-3.603-1.612-3.603-3.608C60.003,10.95,61.617,9.333,63.606,9.333z M63.856,25.766   c-2.995,0-5.637-1.508-7.217-3.806c1.392-2.117,3.825-3.527,6.596-3.527h0.74c2.927,0,5.482,1.572,6.826,3.892   C69.199,24.415,66.688,25.766,63.856,25.766z" fill="#221F1F"/><path d="M93.326,95.195c-8.475,0.003-15.367,6.912-15.367,15.402c0,8.492,6.895,15.402,15.367,15.402   c8.475,0,15.369-6.91,15.369-15.402C108.695,102.107,101.801,95.198,93.326,95.195z M93.344,102.53c1.988,0,3.602,1.616,3.602,3.61   c0,1.992-1.611,3.607-3.602,3.607s-3.604-1.612-3.604-3.607C89.74,104.146,91.354,102.53,93.344,102.53z M93.594,118.962   c-2.996,0-5.637-1.507-7.217-3.805c1.391-2.118,3.824-3.527,6.596-3.527h0.74c2.928,0,5.482,1.571,6.826,3.892   C98.938,117.611,96.426,118.962,93.594,118.962z" fill="#221F1F"/><path d="M34.588,95.195c-8.474,0.003-15.367,6.912-15.367,15.402c0,8.492,6.895,15.402,15.368,15.402   c8.473,0,15.368-6.91,15.369-15.402C49.958,102.107,43.063,95.198,34.588,95.195z M34.606,102.53c1.989,0,3.603,1.616,3.603,3.61   c0,1.992-1.613,3.607-3.603,3.607c-1.99,0-3.603-1.612-3.603-3.607C31.003,104.146,32.617,102.53,34.606,102.53z M34.856,118.962   c-2.995,0-5.637-1.507-7.217-3.805c1.392-2.118,3.825-3.527,6.596-3.527h0.74c2.928,0,5.482,1.571,6.826,3.892   C40.2,117.611,37.688,118.962,34.856,118.962z" fill="#221F1F"/><path d="M63.671,52.106c-8.474,0.002-15.367,6.91-15.367,15.402c0,8.492,6.895,15.401,15.368,15.401   c8.475,0,15.369-6.909,15.369-15.401C79.041,59.016,72.146,52.108,63.671,52.106z M63.689,59.439c1.989,0,3.602,1.616,3.602,3.611   c0,1.992-1.613,3.607-3.602,3.607s-3.603-1.612-3.603-3.607C60.086,61.055,61.7,59.439,63.689,59.439z M63.939,75.871   c-2.995,0-5.637-1.508-7.217-3.807c1.392-2.116,3.825-3.525,6.596-3.525h0.74c2.928,0,5.483,1.57,6.827,3.891   C69.283,74.521,66.771,75.871,63.939,75.871z" fill="#221F1F"/></g></svg>