<?xml version="1.0" ?><!DOCTYPE svg  PUBLIC '-//W3C//DTD SVG 1.1//EN'  'http://www.w3.org/Graphics/SVG/1.1/DTD/svg11.dtd'><svg enable-background="new 0 0 48 48" id="Layer_1" version="1.1" viewBox="0 0 48 48" xml:space="preserve" xmlns="http://www.w3.org/2000/svg" xmlns:xlink="http://www.w3.org/1999/xlink"><g><g><g><polygon fill="#D7DADC" points="27.643,44.812 26.714,44.698 28.488,30.177 40.457,30.177 41.937,44.707 41.005,44.802      39.611,31.114 29.318,31.114    "/></g><path d="M42.693,45.287h-2.131C40.562,43.883,42.693,43.878,42.693,45.287z" fill="#757575"/><path d="M28.401,45.287H26.27C26.27,43.883,28.401,43.878,28.401,45.287z" fill="#757575"/><path d="M41.192,29.051c0.486,0,0.88,0.395,0.88,0.88v0.408c0,0.486-0.395,0.88-0.88,0.88H27.745    c-0.486,0-0.88-0.395-0.88-0.88v-0.408c0-0.486,0.395-0.88,0.88-0.88H41.192z" fill="#C3533C"/><path d="M40.487,29.052H28.566l-1.849-12.267c-0.192-1.276,0.796-2.424,2.086-2.424h11.448    c1.29,0,2.278,1.148,2.086,2.424L40.487,29.052z" fill="#E46047"/><path d="M39.297,4.957c0,3.61-1.866,7.204-4.169,7.204c-2.302,0-4.169-3.594-4.169-7.204    c0-3.608,1.867-4.861,4.169-4.861C37.431,0.097,39.297,1.349,39.297,4.957z" fill="#565656"/><path d="M36.857,6.546c0,0-0.367,2.7,1.21,3.974c0,0-0.691,1.663-0.756,1.685c-0.065,0.022-3.92,0.054-3.974,0    c-0.054-0.054-0.648-1.922-0.648-1.922s0.864-0.648,0.583-3.737H36.857z" fill="#D3AE7E"/><path d="M33.185,2.507c0,0,2.138,2.03,4.45,2.57c0,0,0.605,0.907-0.432,1.188c0,0-0.713,2.03-2.117,2.246    c0,0-1.901,0.281-2.398-2.268c0,0-0.972,0.302-0.713-1.62C31.975,4.623,32.882,3.889,33.185,2.507z" fill="#EAC08B"/><path d="M43.917,21.144l-1.085-5.252c-0.702-5.248-3.297-5.304-3.297-5.304c-1.273,0.117-2.112-1.006-2.112-1.006    c-0.558,0.848-1.269,1.423-2.295,1.432c-0.995-0.031-1.633-0.571-2.047-1.432c-0.352,0.751-2.692,1.223-2.692,1.223    c-1.862,0.288-1.99,2.743-1.99,2.743l0.201,7.861c-0.117,1.606,1.544,1.962,1.544,1.962c0.155-0.06,0.212,0.045,0.212,0.045    c-2.15,4.92,0,6.723,0,6.723l6.495,0.628c4.03,0.829,4.154-2.765,4.154-2.765c0.571-2.23-1.106-5.364-1.106-5.364l-0.163-0.465    l1.546,0.65l0.59,0.24C44.857,23.982,43.917,21.144,43.917,21.144z M31.385,21.433c0.059-0.381,0.053-0.663,0.053-0.663    l-0.478-3.622l0.835,1.903C31.794,19.957,31.616,20.765,31.385,21.433z M38.859,19.091c0.004-1.391,0.69-2.463,0.69-2.463    l1.677,3.41L38.859,19.091z" fill="#757575"/><path d="M39.515,21.541c-1.543-1.312-4.102-0.616-6.621,0l-2.537,1.873c-2.15,4.92,0,6.723,0,6.723l6.416,0.801    c4.03,0.829,4.233-2.938,4.233-2.938c0.571-2.23-1.106-5.364-1.106-5.364L39.515,21.541z" fill="#656565"/><polygon fill="#D7DADC" points="33.964,11.212 35.129,11.013 36.47,11.212 37.612,13.295 35.777,17.125 35.453,17.218     34.653,16.779 33.29,14.119 33.391,12.577   "/><polygon fill="#51B7E3" points="36.066,15.061 34.923,17.221 34.191,15.864 34.943,12.377 35.424,12.367   "/><path d="M35.94,11.752l-0.516,0.614c-0.161,0.132-0.321,0.138-0.48,0.011l-0.52-0.804l0.705-0.561L35.94,11.752z" fill="#A1D7ED"/><path d="M33.175,9.249c0,0,0.193,0.883,1.954,1.764c0,0-1.121,1.339-1.182,1.857c0,0-1.351-2.159-1.122-3.111    L33.175,9.249z" fill="#FFFFFF"/><path d="M37.145,9.197c0,0-0.618,1.515-2.017,1.816c0,0,1.194,1.278,1.435,1.857c0,0,1.309-2.508,1.246-2.991    L37.145,9.197z" fill="#FFFFFF"/><path d="M32.964,9.557l-0.627,0.632l-0.215,0.954c-0.098,0.432,0.231,0.844,0.674,0.844h0.003    c-0.763,1.741-0.835,0.932,2.329,7.065l0.248-2.852L32.964,9.557z" fill="#919497"/><path d="M37.49,9.552l0.682,0.686c0.118,0.512,0.364,1.125,0.075,1.488c-0.131,0.165-0.33,0.261-0.541,0.261    c0.763,1.741,0.835,0.932-2.329,7.065l-0.248-2.852L37.49,9.552z" fill="#919497"/><path d="M37.812,16.778v6.572c0,0.369-0.3,0.669-0.669,0.669c-4.454,0-5.649,0.331-5.649-0.669v-6.572    c0-0.371,0.3-0.669,0.669-0.669h4.98C37.512,16.109,37.812,16.407,37.812,16.778z" fill="#565656"/><path d="M31.494,21.242c0,0-0.094,0.474,1.331,1.184c0.196,0.098,0.369,0.24,0.487,0.424    c0.332,0.515-0.414,0.127-0.959-0.153c0,0-0.244,0.007-0.033,0.158c0.139,0.1,0.918,0.574,0.984,0.717    c0.144,0.311-0.153,0.347-0.37,0.206L32.4,23.429v0.066l0.574,0.429c0.222,0.372-0.176,0.35-0.514,0.115l-0.746-0.517    c0,0-0.244-0.013,0.046,0.211l0.587,0.475c0.337,0.752-2.216-0.345-2.325-1.366C30.022,22.842,29.851,21.468,31.494,21.242z" fill="#EAC08B"/><path d="M37.038,20.83c0,0-2.001-0.234-3.384-1.254c0,0-0.246-0.217,0.206-0.251l0.711,0.226    c0,0,0.452,0.1-0.368-0.309l-0.744-0.284c0,0-0.245-0.351,0.195-0.318l0.49,0.084l-0.686-0.326c0,0-0.217-0.418,0.602-0.284    l0.743,0.31l-0.785-0.494c0,0-0.142-0.544,0.728-0.167l1.482,0.661c0,0,0.215,0.209,0.14-0.159L35.9,17.728    c0,0-0.318-0.468,0.184-0.686l1.505,1.727C37.589,18.769,37.832,19.743,37.038,20.83z" fill="#EAC08B"/><path d="M36.851,20.959c0,0,1.021-1.345,0.597-2.432l3.778,1.511l0.055,2.784L36.851,20.959z" fill="#757575"/><path d="M36.904,30.964l-6.828-1.16c0,0-0.299-0.942,0.876-2.65l5.82,3.194    C36.772,30.348,37.173,30.737,36.904,30.964z" fill="#565656"/><path d="M35.386,45.777c0,0-0.031,1.761,1.112,2.131c0,0,0.978,0.167,1.32-1.113    c0.091-0.342,0.064-0.702-0.078-1.027l-1.088-2.494C36.653,43.275,35.089,44.4,35.386,45.777z" fill="#565656"/><path d="M29.581,43.483c1.148,3.366-2.943,4.596-2.758,2.574c0,0-0.233-1.365,1.082-2.341L29.581,43.483z" fill="#565656"/><path d="M36.229,46.797c0,0,1.227-0.185,1.011-1.699c0,0-0.756-4.17-1.011-7.382c0,0,0.146-6.209-1.089-8.062    l-1.752-2.131l-1.69,3.368l0.415,3.428c0,0,1.284,2.348,3.237,10.965C35.349,45.283,35.341,46.333,36.229,46.797z" fill="#D3AE7E"/><path d="M27.479,44.511c0,0,1.143-3.274,1.761-9.606c0,0,0.185-4.448,1.143-5.745c0,0,0.414-0.62,0.496-1.591    c0.066-0.772,0.514-1.478,1.21-1.819c0.676-0.331,1.601-0.37,2.682,0.664c0.262,0.251,0.472,0.553,0.621,0.883l1.379,3.051    c0,0-1.003,0.171-2.815-0.536c0,0-0.095,3.515-1.506,5.851c-0.97,1.606-2.201,6.584-2.652,8.415    C29.446,45.511,26.823,47.479,27.479,44.511z" fill="#EAC08B"/></g><g><path d="M19.328,29.052H7.406L5.557,16.784c-0.192-1.276,0.796-2.424,2.086-2.424h11.448    c1.29,0,2.278,1.148,2.086,2.424L19.328,29.052z" fill="#E46047"/><path d="M15.85,8.205l2.847,1.199c1.563,0.658,2.691,2.058,3.001,3.726l1.478,7.938c0,0,0.491,2.131-1.975,1.705    l-1.053,0.056l-0.247,6.403H7.722l0.179-6.392C6.149,23.007,3.755,23.678,3.954,21l1.56-7.886    c0.316-1.597,1.383-2.943,2.865-3.615l2.855-1.295l2.331,0.845l1.92-0.845H15.85z" fill="#757575"/><path d="M11.038,4.61c0,0-1.006-1.645-0.258-3.33c0,0,1.931-2.624,5.071-0.367c0,0,0.981,0.856,0.667,2.161    L16.19,4.61l-0.856,0.585C12.495,4.721,13.408,4.843,11.038,4.61z" fill="#565656"/><g><polygon fill="#D7DADC" points="6.483,44.812 5.554,44.698 7.328,30.177 19.297,30.177 20.777,44.707 19.845,44.802      18.451,31.114 8.158,31.114    "/></g><path d="M21.35,45.287h-2.131c0-0.588,0.477-1.064,1.065-1.064C20.873,44.223,21.35,44.699,21.35,45.287z" fill="#757575"/><path d="M7.04,45.287H4.909C4.909,43.883,7.04,43.878,7.04,45.287z" fill="#757575"/><path d="M20.912,29.932v0.408c0,0.486-0.395,0.88-0.88,0.88H6.585c-0.486,0-0.88-0.395-0.88-0.88v-0.408    c0-0.486,0.395-0.88,0.88-0.88h13.447C20.518,29.051,20.912,29.446,20.912,29.932z" fill="#C3533C"/><polygon fill="#D3AE7E" points="15.399,6.457 15.591,10.359 11.234,10.742 11.928,5.667   "/><path d="M11.737,8.963l-0.289,1.644l1.601,4.565l1.011,0.098c0.643-1.496,0.325-0.68,1.531-3.986l-0.467-2.642    l-1.442,0.412L11.737,8.963z" fill="#D7DADC"/><polygon fill="#E46047" points="12.536,9.602 13.188,10.571 12.362,13.833 12.581,14.672 13.58,15.802 14.519,14.503     13.945,10.642 14.698,9.602 13.565,9.049   "/><path d="M11.7,7.332c0,0,1.087,1.337,1.865,1.717c0,0-1.205,1.113-1.509,1.801c0,0-0.876-1.882-0.822-2.646    L11.7,7.332z" fill="#FFFFFF"/><path d="M15.442,7.332l0.408,0.872l-0.849,2.918c0,0-0.845-1.843-1.437-2.073    C13.565,9.049,15.22,7.79,15.442,7.332z" fill="#FFFFFF"/><g><path d="M11.234,8.205c0,0-1.137,0.123-1.164,1.309c-0.002,0.085,0.049,0.163,0.128,0.196     c0.098,0.041,0.268,0.112,0.553,0.23c0.1,0.042,0.167,0.138,0.171,0.247c0.004,0.109-0.057,0.21-0.154,0.258l-0.327,0.163     c-0.069,0.034-0.121,0.096-0.142,0.17c-0.022,0.074-0.012,0.154,0.028,0.22c0.657,1.104,3.179,5.507,3.087,7.819v-4.192     L11.234,8.205z" fill="#919497"/><path d="M15.852,8.205c0,0,1.239,0.119,1.305,1.256c0.007,0.116-0.072,0.224-0.193,0.269l-0.571,0.212     c-0.104,0.039-0.174,0.136-0.178,0.247s0.061,0.213,0.162,0.258l0.365,0.162c0.162,0.072,0.222,0.251,0.13,0.39     c-0.737,1.103-3.57,5.507-3.467,7.82v-4.192L15.852,8.205z" fill="#919497"/></g><path d="M22.028,19.424v6.806c0,0.982-0.796,1.778-1.778,1.778H7.31c-0.981,0-1.777-0.796-1.777-1.778v-6.806    c0-0.982,0.796-1.778,1.777-1.778h12.94C21.232,17.646,22.028,18.442,22.028,19.424z" fill="#A76449"/><g><path d="M17.383,18.986h-7.296v-1.448c0-1.13,0.919-2.049,2.048-2.049h3.199c1.13,0,2.049,0.919,2.049,2.049     V18.986z M11.023,18.049h5.423v-0.511c0-0.613-0.499-1.112-1.112-1.112C11.601,16.426,11.023,16.102,11.023,18.049z" fill="#A76449"/></g><path d="M22.028,19.424v2.981H5.533v-2.981c0-0.982,0.796-1.778,1.777-1.778h12.94    C21.232,17.646,22.028,18.442,22.028,19.424z" fill="#C47455"/><path d="M15.851,23.094c0,0.222-0.181,0.401-0.401,0.401c-2.859,0-3.706,0.24-3.706-0.401    c0-2.248-0.588-1.778,3.706-1.778C16.044,21.316,15.851,22.094,15.851,23.094z" fill="#D7DADC"/><rect fill="#FFFFFF" height="0.981" width="2.354" x="12.62" y="21.915"/><path d="M6.068,18.153c0,0,0.37-1.081,1.315-1.151c0.121-0.009,0.233-0.061,0.31-0.155    c0.129-0.157,0.35-0.363,0.562-0.274c0.109,0.046,0.235,0.049,0.341-0.004c0.104-0.053,0.252-0.05,0.428,0.172    c1.068,1.711,1.232,4.861,0.114,2.752l0.296,1.057c0,0-0.023,0.614-0.58,0.148c-0.821-2.17-0.716-1.73-0.364-0.057    c0,0-0.061,0.705-0.508,0.114c-0.296-0.862-0.721-2.072-0.584-1.171l0.216,0.694c-0.105,1.031-1.156-0.753-1.269-1.719    C6.346,18.558,6.407,18.156,6.068,18.153z" fill="#EAC08B"/><path d="M20.997,17.81c0,0-0.348-1.077-1.232-1.11c-0.174-0.007-0.334-0.091-0.453-0.218    c-0.462-0.495-0.399-0.04-0.869-0.222c-0.673-0.26-1.314,2.576-1.266,3.299c0,0,0.057,0.819,0.557,0l0.193-0.365l-0.296,1.057    c0,0,0.023,0.614,0.58,0.148c0.821-2.17,0.716-1.73,0.364-0.057c0,0,0.061,0.705,0.508,0.114c0.702-2.047,0.752-1.712,0.368-0.478    c0.109,1.07,1.049-0.726,1.166-1.726C20.616,18.254,20.63,17.933,20.997,17.81z" fill="#EAC08B"/><path d="M15.947,4.623l0.079-1.414c0,0-0.245-1.087-2.216-0.843c0,0-1.89,0.19-2.379-0.748    c0,0-0.873,1.376-0.201,2.8c0,0-1.146-1.508-0.254,0.802c0,0,0.054,0.299,0.254,0.109c0,1.998,2.416,3.56,3.706,2.072l0.435-0.502    c0.31-0.357,0.492-0.807,0.518-1.279l0.028-0.497c0.18-0.144,0.451-0.46,0.597-1.113C16.516,4.012,16.575,3.291,15.947,4.623z" fill="#EAC08B"/><path d="M16.633,42.406h2.769c0,0-0.524,2.73,1.439,4.464c0.434,0.383,0.166,1.126-0.433,1.126    c-0.614,0-1.158,0.076-1.648-0.272c-0.392-0.279-0.328-0.453-0.661-0.743C16.629,45.704,16.932,47.683,16.633,42.406z" fill="#565656"/><path d="M11.638,42.406H8.869c0,0,0.524,2.73-1.439,4.464c-0.435,0.384-0.165,1.126,0.433,1.126    c2.766,0,1.338-0.867,3.048-1.474C11.694,46.245,11.469,45.397,11.638,42.406z" fill="#565656"/><path d="M10.034,27.23L10.034,27.23c-1.472,0-2.642,1.238-2.558,2.708l0.849,14.873h3.418l0.849-14.873    C12.676,28.468,11.506,27.23,10.034,27.23z" fill="#656565"/><path d="M17.016,27.27L17.016,27.27c-1.466,0.14-2.512,1.484-2.288,2.94l1.566,14.888l3.402-0.326l0.124-15.05    C19.764,28.251,18.481,27.13,17.016,27.27z" fill="#656565"/></g></g></svg>