<?xml version="1.0" ?><svg viewBox="0 0 512 512" xmlns="http://www.w3.org/2000/svg"><g id="Flat"><path d="M488,216V152H443.68a119.126,119.126,0,0,0-11.26-27.16l31.34-31.35L451.97,81.7,418.51,48.24,387.16,79.58A119.126,119.126,0,0,0,360,68.32V24H296V68.32a119.126,119.126,0,0,0-27.16,11.26L237.49,48.24,192.24,93.49l31.34,31.35A119.126,119.126,0,0,0,212.32,152H168v64h44.32a119.126,119.126,0,0,0,11.26,27.16l-31.34,31.35,45.25,45.25,31.35-31.34A119.126,119.126,0,0,0,296,299.68V344h64V299.68a119.126,119.126,0,0,0,27.16-11.26l31.35,31.34,45.25-45.25-31.34-31.35A119.126,119.126,0,0,0,443.68,216Zm-160,0a32.024,32.024,0,1,1,32-32A32.089,32.089,0,0,1,328,216Z" style="fill:#f35244"/><path d="M443.68,216a119.126,119.126,0,0,1-11.26,27.16l31.34,31.35-45.25,45.25-31.35-31.34A119.126,119.126,0,0,1,360,299.68V344H296V299.68a119.126,119.126,0,0,1-27.16-11.26l-31.35,31.34L223.8,306.07l93.46-91.91a32.028,32.028,0,0,0,41.07-40.39L451.97,81.7l11.79,11.79-31.34,31.35A119.126,119.126,0,0,1,443.68,152H488v64Z" style="fill:#e84d40"/><path d="M328,272a88,88,0,1,1,88-88A88.1,88.1,0,0,1,328,272Zm0-160a72,72,0,1,0,72,72A72.081,72.081,0,0,0,328,112Z" style="fill:#de4132"/><path d="M360,400v24H56V400A152,152,0,0,1,308.55,286.01c2.38,2.09,4.69,4.27,6.93,6.51A151.487,151.487,0,0,1,360,400Z" style="fill:#fa9f0c"/><path d="M360,400v24H56V409.89c92.92-15.57,183.45-52.8,252.55-123.88,2.38,2.09,4.69,4.27,6.93,6.51A151.487,151.487,0,0,1,360,400Z" style="fill:#f5980c"/><path d="M240,376H176V248a32,32,0,0,1,32-32h0a32,32,0,0,1,32,32Z" style="fill:#ffb531"/><rect height="112" rx="8" ry="8" style="fill:#ed8c0c" width="16" x="120" y="272"/><rect height="112" rx="8" ry="8" style="fill:#ed8c0c" width="16" x="280" y="272"/><path d="M369.31,474.269,255.881,485.612Q232.015,488,208,488h0q-23.985,0-47.881-2.388L46.69,474.269A25.2,25.2,0,0,1,24,449.2h0A25.2,25.2,0,0,1,49.2,424H366.8A25.2,25.2,0,0,1,392,449.2h0A25.2,25.2,0,0,1,369.31,474.269Z" style="fill:#ffb531"/><path d="M121.839,211.773A210.709,210.709,0,0,1,120,184,207.848,207.848,0,0,1,192.808,25.922l10.4,12.156A191.867,191.867,0,0,0,136,184a194.58,194.58,0,0,0,1.7,25.656Z" style="fill:#e0e0de"/><path d="M128.265,242.236c-1.345-4.618-2.543-9.347-3.562-14.056l15.638-3.385c.94,4.345,2.046,8.708,3.286,12.969Z" style="fill:#e0e0de"/><path d="M386.427,383.68l-4.486-15.359a192.488,192.488,0,0,0,80.125-46.879L473.239,332.9A208.559,208.559,0,0,1,386.427,383.68Z" style="fill:#e0e0de"/><path d="M485.3,320.092l-12.095-10.473c2.908-3.359,5.732-6.86,8.4-10.405l12.792,9.611C491.512,312.664,488.453,316.455,485.3,320.092Z" style="fill:#e0e0de"/></g></svg>