<?xml version="1.0" ?><svg style="enable-background:new 0 0 128 128;" version="1.1" viewBox="0 0 128 128" xml:space="preserve" xmlns="http://www.w3.org/2000/svg" xmlns:xlink="http://www.w3.org/1999/xlink"><style type="text/css">
	.st0{fill:#455A64;}
	.st1{fill:#6D4C41;}
	.st2{fill:#8D6E63;}
	.st3{fill:#FFFFFF;}
	.st4{fill:#CFD8DC;}
	.st5{fill:#90A4AE;}
	.st6{fill:#1E88E5;}
	.st7{fill:#0D47A1;}
	.st8{fill:#D32F2F;}
	.st9{fill:#64B5F6;}
	.st10{fill:#FFB74D;}
	.st11{fill:#1976D2;}
	.st12{fill:#78909C;}
	.st13{fill:#90CAF9;}
	.st14{fill:#33691E;}
	.st15{fill:#7CB342;}
	.st16{fill:#C5E1A5;}
	.st17{fill:#DD2D2D;}
	.st18{fill:#FF9800;}
	.st19{fill:#424242;}
	.st20{fill:#FFA726;}
	.st21{fill:#E1F5FE;}
	.st22{fill:#FBC02D;}
</style><g id="Layer_50"/><g id="Layer_49"/><g id="Layer_48"/><g id="Layer_47"/><g id="Layer_46"/><g id="Layer_45"/><g id="Layer_44"/><g id="Layer_43"/><g id="Layer_42"/><g id="Layer_41"/><g id="Layer_40"/><g id="Layer_39"/><g id="Layer_38"/><g id="Layer_37"/><g id="Layer_36"/><g id="Layer_35"><g id="XMLID_280_"><g id="XMLID_1152_"><g id="XMLID_524_"><ellipse class="st10" cx="25.479" cy="79.754" id="XMLID_1145_" rx="11.995" ry="11.766"/><path class="st12" d="M40.673,115.01c0-3.886,0.837-7.547,2.291-10.827      c-2.768-7.434-9.451-12.663-17.296-12.663C15.334,91.521,7,100.583,7,111.82v8.881h33.673V115.01z" id="XMLID_2065_"/></g><g id="XMLID_253_"><ellipse class="st10" cx="102.521" cy="79.754" id="XMLID_1149_" rx="11.995" ry="11.766"/><path class="st12" d="M102.333,91.521c-7.846,0-14.528,5.229-17.296,12.663      c1.454,3.28,2.291,6.941,2.291,10.827v5.691H121v-8.881C121,100.583,112.666,91.521,102.333,91.521z" id="XMLID_536_"/></g><g id="XMLID_1141_"><path class="st0" d="M64,89.891L64,89.891c-12.913,0-23.327,11.214-23.327,25.119V126h46.655v-10.99      C87.328,101.105,76.913,89.891,64,89.891z" id="XMLID_1143_"/><ellipse class="st10" cx="63.764" cy="75.331" id="XMLID_1142_" rx="14.99" ry="14.56"/></g></g><g id="XMLID_408_"><ellipse class="st8" cx="64" cy="25.952" id="XMLID_407_" rx="23.712" ry="23.952"/><polygon class="st3" id="XMLID_406_" points="78.442,22.071 67.808,22.071 67.808,11.175 60.192,11.175 60.192,22.071      49.558,22.071 49.558,29.832 60.192,29.832 60.192,40.728 67.808,40.728 67.808,29.832 78.442,29.832    "/></g></g></g><g id="Layer_34"/><g id="Layer_33"/><g id="Layer_32"/><g id="Layer_31"/><g id="Layer_30"/><g id="Layer_29"/><g id="Layer_28"/><g id="Layer_27"/><g id="Layer_26"/><g id="Layer_25"/><g id="Layer_24"/><g id="Layer_23"/><g id="Layer_22"/><g id="Layer_21"/><g id="Layer_20"/><g id="Layer_19"/><g id="Layer_18"/><g id="Layer_17"/><g id="Layer_16"/><g id="Layer_15"/><g id="Layer_14"/><g id="Layer_13"/><g id="Layer_12"/><g id="Layer_11"/><g id="Layer_10"/><g id="Layer_9"/><g id="Layer_8"/><g id="Layer_7"/><g id="Layer_6"/><g id="Layer_5"/><g id="Layer_4"/><g id="Layer_3"/><g id="Layer_2"/><g id="Layer_1"/></svg>