<?xml version="1.0" ?><!DOCTYPE svg  PUBLIC '-//W3C//DTD SVG 1.0//EN'  'http://www.w3.org/TR/2001/REC-SVG-20010904/DTD/svg10.dtd'><svg height="110px" style="enable-background:new 0 0 110 110;" version="1.0" viewBox="0 0 110 110" width="110px" xml:space="preserve" xmlns="http://www.w3.org/2000/svg" xmlns:xlink="http://www.w3.org/1999/xlink"><g id="Artboard"/><g id="Multicolor"><circle cx="55" cy="55" r="55" style="fill:#FABC3D;"/><g><circle cx="55" cy="33" r="10" style="fill:#FFFFFF;"/><path d="M77,77c0,1.105-0.895,2-2,2H35c-1.105,0-2-0.895-2-2V49c0-1.105,0.895-2,2-2h40    c1.105,0,2,0.895,2,2V77z" style="fill:#3E3E3F;"/><rect height="5" style="fill:#E2E4E5;" width="12" x="49" y="79"/><path d="M77,77v-6H33v6c0,1.104,0.896,2,2,2h40C76.104,79,77,78.104,77,77z" style="fill:#FFFFFF;"/><circle cx="55" cy="75" r="2" style="fill:#B6BCBD;"/><path d="M33,49v22h13.56l24-24H35C33.896,47,33,47.896,33,49z" style="fill:#5B5C5F;"/><path d="M60.201,33.721c-0.339-0.117-2.89-0.849-2.89-1.206c0.845-0.678,1.387-1.717,1.387-2.885    c0-2.043-1.656-3.699-3.699-3.699s-3.699,1.656-3.699,3.699c0,1.167,0.542,2.207,1.387,2.885c0,0.357-2.551,1.089-2.89,1.206    C49.305,34.004,49,34.529,49,35.098l0.462,2.97h11.076L61,35.098C61,34.529,60.695,34.004,60.201,33.721z" style="fill:#21B2D1;"/><circle cx="33" cy="39" r="10" style="fill:#FFFFFF;"/><path d="M38.201,39.721c-0.339-0.117-2.89-0.849-2.89-1.206c0.845-0.678,1.387-1.717,1.387-2.885    c0-2.043-1.656-3.699-3.699-3.699s-3.699,1.656-3.699,3.699c0,1.167,0.542,2.207,1.387,2.885c0,0.357-2.551,1.089-2.89,1.206    C27.305,40.004,27,40.529,27,41.098l0.462,2.97h11.076L39,41.098C39,40.529,38.695,40.004,38.201,39.721z" style="fill:#21B2D1;"/><circle cx="77" cy="39" r="10" style="fill:#FFFFFF;"/><path d="M82.201,39.721c-0.326-0.113-2.89-0.886-2.89-1.206c0.845-0.678,1.387-1.717,1.387-2.885    c0-2.043-1.656-3.699-3.699-3.699s-3.699,1.656-3.699,3.699c0,1.167,0.542,2.207,1.387,2.885c0,0.357-2.551,1.089-2.89,1.206    C71.305,40.004,71,40.529,71,41.098l0.462,2.97h11.076L83,41.098C83,40.529,82.695,40.004,82.201,39.721z" style="fill:#21B2D1;"/><circle cx="55" cy="47" r="2" style="fill:#FFFFFF;"/><circle cx="55" cy="55" r="2" style="fill:#FFFFFF;"/><circle cx="55" cy="63" r="2" style="fill:#FFFFFF;"/><circle cx="62" cy="56" r="2" style="fill:#FFFFFF;"/><circle cx="68" cy="50" r="2" style="fill:#FFFFFF;"/><circle cx="48" cy="56" r="2" style="fill:#FFFFFF;"/><circle cx="42" cy="50" r="2" style="fill:#FFFFFF;"/><path d="M66,85.5c0,0.828-0.672,1.5-1.5,1.5h-19c-0.828,0-1.5-0.672-1.5-1.5s0.672-1.5,1.5-1.5h19    C65.328,84,66,84.672,66,85.5z" style="fill:#F0F1F1;"/></g></g></svg>