<?xml version="1.0" ?><!DOCTYPE svg  PUBLIC '-//W3C//DTD SVG 1.1//EN'  'http://www.w3.org/Graphics/SVG/1.1/DTD/svg11.dtd'><svg height="238.2px" id="Layer_1" style="enable-background:new 0 0 235.8 238.2;" version="1.1" viewBox="0 0 235.8 238.2" width="235.8px" xml:space="preserve" xmlns="http://www.w3.org/2000/svg" xmlns:xlink="http://www.w3.org/1999/xlink"><style type="text/css">
	.st0{fill:#00C853;}
	.st1{opacity:0.1;}
	.st2{fill:#FFFFFF;}
</style><g><g><g><circle class="st0" cx="118.1" cy="119.1" r="114.1"/><path class="st1" d="M118.1,5C55.1,5,4,56.1,4,119.1s51.1,114.1,114.1,114.1c63,0,114.1-51.1,114.1-114.1S181.1,5,118.1,5z       M118.1,220.4c-56,0-101.3-45.4-101.3-101.3S62.1,17.8,118.1,17.8s101.3,45.4,101.3,101.3S174.1,220.4,118.1,220.4z"/></g><g><path class="st2" d="M76,125.9v51.9c0,2,1.2,3.2,2.2,3.8c1,0.6,2.2,0.9,3.4,0.9l22.4,0c0.8,0,1.5-0.3,2.1-0.9      c0.5-0.6,0.9-1.4,0.9-2.2v-25l22.3,0v25c0,0.8,0.3,1.6,0.9,2.2c0.5,0.6,1.3,0.9,2.1,0.9h22.4c1.2,0,2.3-0.3,3.4-0.9      c1-0.6,2.2-1.8,2.2-3.8v-51.9l-42.1-40.4L76,125.9z"/><path class="st2" d="M176.5,109.8l-8.8-8.1v-0.1L157,91.8V63.9c0-1.7-1.4-3.1-3.1-3.1h-7.4c-1.7,0-3.1,1.4-3.1,3.1v15.5      l-20-18.3c-1.5-1.4-3.5-2.1-5.4-2.1c-1.9,0-3.9,0.7-5.4,2.1L97.1,75.4c0,0,0,0.1,0,0.1l-37.4,34.2c-3.2,2.9-3.4,7.9-0.5,11.1v0      c1.6,1.7,3.7,2.6,5.8,2.6c1.9,0,3.8-0.7,5.3-2.1l47.8-43.7l47.8,43.7c1.5,1.4,3.4,2.1,5.3,2.1c2.1,0,4.3-0.9,5.8-2.6v0      C180,117.7,179.7,112.7,176.5,109.8z"/></g></g></g></svg>