<?xml version="1.0" ?><!DOCTYPE svg  PUBLIC '-//W3C//DTD SVG 1.1//EN'  'http://www.w3.org/Graphics/SVG/1.1/DTD/svg11.dtd'><svg enable-background="new 0 0 151 151" id="Layer_1" version="1.1" viewBox="0 0 151 151" xml:space="preserve" xmlns="http://www.w3.org/2000/svg" xmlns:xlink="http://www.w3.org/1999/xlink"><g><circle cx="75.5" cy="75.5" fill="#F0582F" r="75.1"/><g><path d="M123,22.5H28c-3,0-5.5,2.4-5.5,5.5V123c0,3,2.4,5.5,5.5,5.5H123c3,0,5.5-2.4,5.5-5.5V28    C128.5,25,126,22.5,123,22.5z" fill="#646B79"/><rect fill="#6EB1E1" height="78.3" width="88.9" x="31.1" y="42.8"/><g><g><path d="M66.3,102.7l-9.5,4.4c-7.5,3.5-16.4,0.2-19.9-7.3c-3.5-7.5-0.2-16.4,7.3-19.9l9.5-4.4      c7.5-3.5,16.4-0.2,19.9,7.3C77.1,90.3,73.8,99.2,66.3,102.7z M47.3,86.5c-3.8,1.8-5.5,6.3-3.7,10.1c1.8,3.8,6.3,5.5,10.1,3.7      l9.5-4.4c3.8-1.8,5.5-6.3,3.7-10.1c-1.8-3.8-6.3-5.5-10.1-3.7L47.3,86.5z" fill="#FFFFFC"/></g><g><path d="M106.8,84l-9.5,4.4c-7.5,3.5-16.4,0.2-19.9-7.3c-3.5-7.5-0.2-16.4,7.3-19.9l9.5-4.4      c7.5-3.5,16.4-0.2,19.9,7.3C117.5,71.6,114.3,80.5,106.8,84z M87.8,67.9c-3.8,1.8-5.5,6.3-3.7,10.1c1.8,3.8,6.3,5.5,10.1,3.7      l9.5-4.4c3.8-1.8,5.5-6.3,3.7-10.1c-1.8-3.8-6.3-5.5-10.1-3.7L87.8,67.9z" fill="#FFFFFC"/></g><g><path d="M89.5,79.5L64.6,91c-1.8,0.8-4,0-4.9-1.8c-0.8-1.8,0-4,1.8-4.9l24.9-11.5c1.8-0.8,4,0,4.9,1.8      C92.1,76.5,91.3,78.7,89.5,79.5z" fill="#DEDEDF"/></g></g><circle cx="34" cy="32.9" fill="#F0582F" r="2.9"/><circle cx="43.3" cy="32.9" fill="#FBD303" r="2.9"/><circle cx="52.6" cy="32.9" fill="#71D456" r="2.9"/></g></g></svg>