<?xml version="1.0" ?><svg viewBox="0 0 64 64" xmlns="http://www.w3.org/2000/svg"><defs><style>.cls-1{fill:#36afad;}.cls-2{fill:#195c85;}.cls-3{fill:#cfdfe8;}.cls-4{fill:#fdbd40;}</style></defs><title/><g id="filloutline"><rect class="cls-1" height="28" width="10" x="3" y="14"/><path class="cls-2" d="M23,8H13V42h9a19.9,19.9,0,0,1,1-6.2Z"/><path class="cls-1" d="M42.707,13.293a1,1,0,0,0-1.414,0l-5,5,1.414,1.414L42,15.414l3.293,3.293a1,1,0,0,0,1.414,0L54,11.414V16h2V9h-.009A.973.973,0,0,0,55,8H48v2h4.586L46,16.586Z"/><rect class="cls-2" height="2" width="16" x="4" y="47"/><rect class="cls-2" height="2" width="16" x="4" y="51"/><rect class="cls-2" height="2" width="16" x="4" y="55"/><path class="cls-3" d="M33,24.165V3H23V35.8A20.051,20.051,0,0,1,33,24.165Z"/><path class="cls-2" d="M43,22.03c-.33-.02-.67-.03-1-.03s-.67.01-1,.03V42a1,1,0,0,0,1,1H61.97c.02-.33.03-.67.03-1s-.01-.67-.03-1A20,20,0,0,0,43,22.03Z"/><path class="cls-4" d="M59.97,43H42a1,1,0,0,1-1-1V22.03a19.828,19.828,0,0,0-8,2.135A19.989,19.989,0,1,0,61.97,43h-2Z"/><path d="M42,22a19.871,19.871,0,0,0-8,1.681V3a1,1,0,0,0-1-1H23a1,1,0,0,0-1,1V7H13a1,1,0,0,0-1,1v5H3a1,1,0,0,0-1,1V42a1,1,0,0,0,1,1H22.051A19.987,19.987,0,1,0,42,22ZM12,41H4V15h8Zm10,0H14V9h8ZM24,4h8V24.706a20.1,20.1,0,0,0-8,8.634ZM42,60a17.988,17.988,0,0,1-1-35.949V42a1,1,0,0,0,1,1H59.949A18.007,18.007,0,0,1,42,60Zm1-19V24.051A17.994,17.994,0,0,1,59.949,41Z"/><path d="M42.707,13.293a1,1,0,0,0-1.414,0l-5,5,1.414,1.414L42,15.414l3.293,3.293a1,1,0,0,0,1.414,0L54,11.414V16h2V9h-.009A.973.973,0,0,0,55,8H48v2h4.586L46,16.586Z"/><rect height="2" width="16" x="4" y="47"/><rect height="2" width="16" x="4" y="51"/><rect height="2" width="16" x="4" y="55"/></g></svg>