<?xml version="1.0" ?><!DOCTYPE svg  PUBLIC '-//W3C//DTD SVG 1.1//EN'  'http://www.w3.org/Graphics/SVG/1.1/DTD/svg11.dtd'><svg enable-background="new 0 0 100 100" height="100px" id="Layer_1" version="1.1" viewBox="0 0 100 100" width="100px" xml:space="preserve" xmlns="http://www.w3.org/2000/svg" xmlns:xlink="http://www.w3.org/1999/xlink"><g><g><g><radialGradient cx="-267.1265" cy="14.271" gradientTransform="matrix(0.9951 0 0 1.0028 331.3999 54.1211)" gradientUnits="userSpaceOnUse" id="SVGID_1_" r="62.1012"><stop offset="0" style="stop-color:#FFFFFF"/><stop offset="0.4978" style="stop-color:#DEE3E9"/><stop offset="1" style="stop-color:#B9C4D0"/></radialGradient><path d="M75.973,30.18c0.028-0.377,0.05-0.757,0.05-1.141c0-8.085-6.742-14.637-15.063-14.637     c-6.778,0-12.512,4.357-14.399,10.348c-2.17-1.596-4.953-2.559-7.988-2.559c-6.919,0-12.53,4.99-12.53,11.147     c0,0.542,0.047,1.075,0.13,1.601c-8.208,1.324-14.254,5.879-14.254,11.293c0,6.452,8.59,11.686,19.191,11.686     c3.728,0,7.204-0.65,10.148-1.77c3.163,1.449,7.075,2.305,11.307,2.305c4.05,0,7.802-0.781,10.89-2.117     c2.761,1.504,6.074,2.387,9.638,2.387c9.64,0,17.459-6.434,17.459-14.37C90.551,37.223,84.244,31.311,75.973,30.18z" fill="url(#SVGID_1_)"/><radialGradient cx="-256.1714" cy="-24.4976" gradientTransform="matrix(0.9951 0 0 1.0028 331.3999 54.1211)" gradientUnits="userSpaceOnUse" id="SVGID_2_" r="39.3339"><stop offset="0" style="stop-color:#FFFFFF"/><stop offset="0.4978" style="stop-color:#DEE3E9"/><stop offset="1" style="stop-color:#B9C4D0"/></radialGradient><path d="M47.841,25.734l-0.451,1.432l-1.203-0.884c-1.931-1.425-4.382-2.212-6.906-2.212     c-5.937,0-10.762,4.238-10.762,9.447c0,0.439,0.036,0.889,0.108,1.34l0.174,1.066l-1.062,0.172     c-7.396,1.193-12.56,5.141-12.56,9.597c0,5.487,7.651,9.954,17.049,9.954c3.27,0,6.453-0.553,9.208-1.6l0.414-0.16l0.404,0.188     c2.973,1.361,6.512,2.08,10.235,2.08c3.554,0,6.96-0.662,9.856-1.914l0.477-0.205l0.456,0.246     c2.545,1.391,5.518,2.127,8.591,2.127c8.498,0,15.413-5.605,15.413-12.492c0-6.116-5.4-11.295-12.837-12.313l-0.968-0.132     l0.089-2.012c0-7.025-5.9-12.741-13.15-12.741C54.595,16.718,49.538,20.342,47.841,25.734z" fill="url(#SVGID_2_)"/><path d="M85.275,43.477c0-4.96-4.573-9.186-10.875-10.047l-3.021-0.413c0,0,0.171-3.874,0.177-4.017     c-0.012-5.756-4.887-10.437-10.878-10.437c-3.105,0-5.939,1.236-7.944,3.294c1.721-1.073,3.765-1.686,5.944-1.686     c5.992,0,10.866,4.683,10.882,10.439c-0.007,0.145-0.181,4.016-0.181,4.016l3.022,0.413c6.303,0.864,10.873,5.088,10.873,10.049     c0,2.346-1.024,4.506-2.743,6.231C83.429,49.445,85.275,46.627,85.275,43.477z" fill="#FFFFFF"/><radialGradient cx="-297.5703" cy="33.5879" gradientTransform="matrix(0.6448 0 0 0.6498 238.5894 31.4351)" gradientUnits="userSpaceOnUse" id="SVGID_3_" r="62.0995"><stop offset="0" style="stop-color:#FFFFFF"/><stop offset="0.4978" style="stop-color:#DEE3E9"/><stop offset="1" style="stop-color:#B9C4D0"/></radialGradient><path d="M53.426,28.467c0.021-0.244,0.033-0.489,0.033-0.738c0-5.24-4.369-9.486-9.761-9.486     c-4.395,0-8.108,2.822-9.333,6.707c-1.407-1.035-3.209-1.658-5.177-1.658c-4.481,0-8.118,3.234-8.118,7.223     c0,0.353,0.03,0.698,0.083,1.038c-5.318,0.858-9.236,3.809-9.236,7.319c0,4.181,5.567,7.57,12.434,7.57     c2.418,0,4.672-0.422,6.579-1.146c2.05,0.94,4.583,1.493,7.328,1.493c2.625,0,5.056-0.508,7.056-1.373     c1.79,0.979,3.937,1.547,6.247,1.547c6.246,0,11.313-4.167,11.313-9.313C62.873,33.031,58.786,29.199,53.426,28.467z" fill="url(#SVGID_3_)"/><radialGradient cx="-286.6138" cy="-5.1812" gradientTransform="matrix(0.6448 0 0 0.6498 238.5894 31.4351)" gradientUnits="userSpaceOnUse" id="SVGID_4_" r="39.3334"><stop offset="0" style="stop-color:#FFFFFF"/><stop offset="0.4978" style="stop-color:#DEE3E9"/><stop offset="1" style="stop-color:#B9C4D0"/></radialGradient><path d="M35.195,25.588l-0.292,0.928l-0.779-0.576c-1.25-0.922-2.841-1.433-4.475-1.433     c-3.846,0-6.973,2.748-6.973,6.122c0,0.286,0.023,0.578,0.07,0.869l0.112,0.691l-0.688,0.111c-4.791,0.773-8.14,3.334-8.14,6.221     c0,3.554,4.956,6.449,11.049,6.449c2.12,0,4.182-0.359,5.967-1.039l0.27-0.102l0.264,0.119c1.924,0.883,4.218,1.35,6.63,1.35     c2.302,0,4.511-0.428,6.388-1.24l0.309-0.134l0.294,0.161c1.65,0.902,3.575,1.378,5.567,1.378c5.509,0,9.988-3.632,9.988-8.096     c0-3.963-3.497-7.319-8.318-7.978l-0.627-0.088l0.058-1.301c0-4.557-3.823-8.26-8.521-8.26     C39.572,19.742,36.296,22.092,35.195,25.588z" fill="url(#SVGID_4_)"/><path d="M59.456,37.084c0-3.215-2.967-5.951-7.049-6.513l-1.956-0.267c0,0,0.11-2.51,0.115-2.602     c-0.01-3.732-3.169-6.764-7.051-6.764c-2.014,0-3.85,0.803-5.149,2.136c1.116-0.695,2.44-1.092,3.854-1.092     c3.884,0,7.041,3.034,7.049,6.764c-0.003,0.092-0.113,2.604-0.113,2.604l1.958,0.266c4.084,0.559,7.046,3.298,7.046,6.512     c0,1.521-0.663,2.921-1.778,4.037C58.256,40.951,59.456,39.127,59.456,37.084z" fill="#FFFFFF"/></g><g><radialGradient cx="-665.1304" cy="-561.0151" gradientTransform="matrix(-1.6755 0 0 -1.6888 -1080.0088 -840.7246)" gradientUnits="userSpaceOnUse" id="SVGID_5_" r="23.5604"><stop offset="0" style="stop-color:#E1F3FC"/><stop offset="0.1163" style="stop-color:#D8EDF9"/><stop offset="0.3088" style="stop-color:#BEDFF2"/><stop offset="0.5536" style="stop-color:#95C6E7"/><stop offset="0.8385" style="stop-color:#5DA5D8"/><stop offset="1" style="stop-color:#3A90CE"/></radialGradient><path d="M53.127,65.893L34.896,47.598c-0.681-0.736-1.634-1.156-2.617-1.156     c-0.985,0-1.935,0.42-2.615,1.156L11.434,65.893c-1.212,1.318-0.889,2.518-0.69,2.979c0.2,0.465,0.854,1.523,2.638,1.523     c0,0,8.392,0,8.397,0c0,0,0,0,0.006,0c0,0.014,0,12.273,0,12.273c0,2.063,1.662,3.734,3.699,3.734h13.598     c2.034,0,3.698-1.672,3.698-3.734c0,0,0-12.26,0-12.273h0.004c0.005,0,8.397,0,8.397,0c1.782,0,2.437-1.059,2.635-1.518     C54.01,68.41,54.337,67.211,53.127,65.893z" fill="url(#SVGID_5_)"/><path d="M21.785,66.762h-8.404c-0.075,0-0.139-0.014-0.205-0.018l-0.386,0.418     c-0.696,0.758-0.431,1.367,0.591,1.367h8.404c1.014,0,1.849,0.842,1.849,1.865v-1.768C23.634,67.604,22.799,66.762,21.785,66.762     z" fill="#DCF1FC"/><path d="M42.78,66.762c-1.016,0-1.848,0.842-1.848,1.865v1.768c0-1.023,0.832-1.865,1.848-1.865h8.402     c1.015,0,1.281-0.609,0.59-1.367l-0.389-0.418c-0.064,0.004-0.125,0.018-0.201,0.018H42.78z" fill="#DCF1FC"/><path d="M39.082,82.77H25.484c-1.021,0-1.85-0.836-1.85-1.865v1.764c0,1.031,0.828,1.867,1.85,1.867h13.598     c1.019,0,1.85-0.836,1.85-1.867v-1.764C40.932,81.934,40.101,82.77,39.082,82.77z" fill="#DCF1FC"/></g></g></g></svg>