<?xml version="1.0" ?><svg id="Layer_1" style="enable-background:new 0 0 128 128;" version="1.1" viewBox="0 0 128 128" xml:space="preserve" xmlns="http://www.w3.org/2000/svg" xmlns:xlink="http://www.w3.org/1999/xlink"><style type="text/css">
	.st0{fill:#3B4652;}
	.st1{fill:#2B79C2;}
</style><g><path class="st1" d="M14.1,63.1V8.6h79.5v15.3c1.6-1.4,3.4-2.5,5.4-3.1V3.2H8.7v59.9c0,5.4,4.4,9.8,9.8,9.8h33.2v4.7   c-2.5,0.9-4.3,3.3-4.3,6.1c0,3.5,2.9,6.4,6.4,6.4c3.5,0,6.4-2.9,6.4-6.4c0-2.8-1.8-5.2-4.3-6.1v-4.7h29.4l0-5.4H18.5   C16.1,67.6,14.1,65.6,14.1,63.1z"/><path class="st0" d="M94.1,34.9c0,0.9,0.2,1.8,0.4,2.6c0.9,2.8,3.1,5.1,5.8,6.2c0.3,0.1,0.6,0.2,1,0.3c0.8,0.2,1.5,0.3,2.3,0.3   c0.4,0,0.8,0,1.2-0.1c0.3,0,0.5-0.1,0.8-0.2c3-0.8,5.6-3.1,6.8-6c0.4-1,0.6-2.1,0.6-3.3c-0.1-5.1-4.4-9.3-9.6-9.3   C98.3,25.4,94,29.8,94.1,34.9z"/><path class="st0" d="M119.2,55.9c0-0.4-0.1-1.3-0.2-2.2c-0.1-0.7-0.2-1.4-0.2-1.6c-0.1-1.1-0.8-1.9-1.8-2.2   c-1.4-0.5-2.8-0.9-4.3-1.4c-0.1,0-0.3-0.1-0.5-0.2l-0.6-0.2c-1-0.3-1.5-0.5-1.8-0.5l-0.2,0c-0.2,0-0.4,0.1-0.5,0.3   c-0.2,0.2-0.3,0.4-0.4,0.7c0,0.1-0.4,1.2-1,3c-0.6,2-1.4,4.5-1.9,6l-0.2-1.6c-0.1-1-0.3-2.1-0.4-2.8c0,0,0-0.1,0-0.2l-0.1-0.5   c0-0.3-0.1-0.4-0.1-0.5c0,0,0-0.1,0-0.1c0.1-0.2,0.2-0.4,0.2-0.5c0.1-0.2,0.1-0.3,0.2-0.5l0.1-0.2c0.1-0.2,0.2-0.4,0.2-0.7   c0-0.1,0-0.2-0.2-0.6c-0.2-0.4-0.2-0.4-0.2-0.5c-0.1-0.1-0.2-0.3-0.5-0.3l-0.2,0c-0.1,0-0.2,0-0.2,0c-0.2,0-0.5,0-1,0h-0.2   c-0.6,0-1.1,0-1.3,0c0,0-0.1,0-0.2,0h-0.2c-0.3,0.1-0.4,0.2-0.5,0.4c-0.1,0.1-0.4,0.9-0.4,1.1c0,0.3,0.1,0.5,0.2,0.7l0.1,0.1   c0.1,0.1,0.1,0.3,0.2,0.4c0.1,0.3,0.2,0.5,0.3,0.7c0,0.1,0,0.3-0.1,0.5l-0.1,0.6c0,0,0,0.1,0,0.2l0,0.1c0,0.3-0.1,0.6-0.1,1   l-0.1,0.5l0,0.2l-0.3,2.5c-0.4-1.4-1.1-3.5-1.7-5.4c-0.1-0.2-0.2-0.5-0.2-0.7c-0.5-1.6-0.9-2.9-0.9-2.9c0-0.1-0.1-0.2-0.1-0.2   c-0.2-0.4-0.4-0.6-0.8-0.7l-0.2,0c-0.1,0-0.3,0-0.3,0c-1.4,0.2-18.3,2.6-18.3,2.6l-0.4,0.1l0,0c0,0,0.1,0,0.1,0l-0.8,0l-1.6,0.1   l-9.8,0.4c-2,0.1-3.6,1.7-3.6,3.7s1.6,3.7,3.6,3.7l9.8,1.1l2.3,0.1c0.5,0,12.7-0.8,12.7-0.8v1l-0.1,17.1   c0.2,15.9,0.4,37.5,0.4,43.1c0,3.4,1.9,5.3,4.7,4.9c2-0.3,3.3-1.5,3.5-3.4c0-0.1,0-0.3,0-0.4c0.5-4.7,0.9-12,1.3-16.7   c0.4-4.7,0.8-9.3,1.3-14c0-0.1,0-0.2,0.1-0.2c0-0.1,0.1-0.2,0.2-0.3c0.5-0.7,1.5-0.7,1.9,0c0,0.1,0.1,0.2,0.1,0.2   c0.3,2.8,0.5,5.6,0.7,8.4c0,0.4,0.1,0.9,0.1,1.3c0.4,6,0.8,14.7,1.2,20.7c0,0.2,0,0.4,0.1,0.6c0.4,1.9,1.7,3.3,3.6,3.6   c1.9,0.4,3.6-0.4,4.5-2.1c0.2-0.5,0.4-1,0.5-1.5c0.2-0.8,0.3-1.7,0.3-2.6c0-0.3,0.2-10.1,0.4-18.4c0.1-5.3,0.2-9.9,0.3-11.1l0-0.4   c0-0.5,0-0.9,0.1-1.4c0.1-0.2,0.2-0.4,0.4-0.6c0-0.1,0.1-0.1,0.1-0.1c0.9-1.1,1.7-2.2,2.1-3.4c0.5-1.1,0.7-2.3,0.7-3.5   c0-1.2,0-2.5,0.1-3.7C119.3,71.3,119.3,59.9,119.2,55.9z"/><path class="st1" d="M30.9,35.4c-0.5-0.2-1.1,0-1.4,0.5c-0.3,0.5-0.1,1.2,0.4,1.5l28.3,15.6c0,0,0.1,0,0.1,0.1c1,0.5,2.2,0,2.7-1   c0.5-1,0-2.2-1-2.7L30.9,35.4z"/></g></svg>